G04 #@! TF.GenerationSoftware,KiCad,Pcbnew,(6.0.6)*
G04 #@! TF.CreationDate,2022-08-14T15:31:57+08:00*
G04 #@! TF.ProjectId,led_scroll,6c65645f-7363-4726-9f6c-6c2e6b696361,rev?*
G04 #@! TF.SameCoordinates,Original*
G04 #@! TF.FileFunction,Legend,Bot*
G04 #@! TF.FilePolarity,Positive*
%FSLAX46Y46*%
G04 Gerber Fmt 4.6, Leading zero omitted, Abs format (unit mm)*
G04 Created by KiCad (PCBNEW (6.0.6)) date 2022-08-14 15:31:57*
%MOMM*%
%LPD*%
G01*
G04 APERTURE LIST*
G04 Aperture macros list*
%AMRoundRect*
0 Rectangle with rounded corners*
0 $1 Rounding radius*
0 $2 $3 $4 $5 $6 $7 $8 $9 X,Y pos of 4 corners*
0 Add a 4 corners polygon primitive as box body*
4,1,4,$2,$3,$4,$5,$6,$7,$8,$9,$2,$3,0*
0 Add four circle primitives for the rounded corners*
1,1,$1+$1,$2,$3*
1,1,$1+$1,$4,$5*
1,1,$1+$1,$6,$7*
1,1,$1+$1,$8,$9*
0 Add four rect primitives between the rounded corners*
20,1,$1+$1,$2,$3,$4,$5,0*
20,1,$1+$1,$4,$5,$6,$7,0*
20,1,$1+$1,$6,$7,$8,$9,0*
20,1,$1+$1,$8,$9,$2,$3,0*%
G04 Aperture macros list end*
%ADD10C,0.150000*%
%ADD11C,0.070000*%
%ADD12C,0.120000*%
%ADD13RoundRect,0.200000X-0.275000X0.200000X-0.275000X-0.200000X0.275000X-0.200000X0.275000X0.200000X0*%
%ADD14RoundRect,0.200000X0.200000X0.275000X-0.200000X0.275000X-0.200000X-0.275000X0.200000X-0.275000X0*%
%ADD15RoundRect,0.200000X-0.200000X-0.275000X0.200000X-0.275000X0.200000X0.275000X-0.200000X0.275000X0*%
%ADD16R,1.500000X1.500000*%
%ADD17C,1.500000*%
%ADD18C,1.560000*%
%ADD19R,1.560000X1.560000*%
%ADD20O,1.700000X1.700000*%
%ADD21R,1.700000X1.700000*%
%ADD22R,2.800000X2.800000*%
%ADD23C,2.800000*%
%ADD24R,2.000000X2.000000*%
%ADD25C,2.000000*%
%ADD26R,3.200000X2.000000*%
%ADD27RoundRect,0.150000X0.825000X0.150000X-0.825000X0.150000X-0.825000X-0.150000X0.825000X-0.150000X0*%
%ADD28RoundRect,0.150000X-0.825000X-0.150000X0.825000X-0.150000X0.825000X0.150000X-0.825000X0.150000X0*%
G04 APERTURE END LIST*
D10*
X67278095Y-217820761D02*
X66897142Y-217820761D01*
X66706666Y-217725523D01*
X66611428Y-217630285D01*
X66420952Y-217344571D01*
X66325714Y-216963619D01*
X66325714Y-216201714D01*
X66420952Y-216011238D01*
X66516190Y-215916000D01*
X66706666Y-215820761D01*
X67087619Y-215820761D01*
X67278095Y-215916000D01*
X67373333Y-216011238D01*
X67468571Y-216201714D01*
X67468571Y-216677904D01*
X67373333Y-216868380D01*
X67278095Y-216963619D01*
X67087619Y-217058857D01*
X66706666Y-217058857D01*
X66516190Y-216963619D01*
X66420952Y-216868380D01*
X66325714Y-216677904D01*
X65754285Y-215820761D02*
X65087619Y-217820761D01*
X64420952Y-215820761D01*
X67087619Y-234076761D02*
X67087619Y-232076761D01*
X66135238Y-234076761D02*
X66135238Y-232076761D01*
X64992380Y-234076761D01*
X64992380Y-232076761D01*
X67563809Y-220996000D02*
X67754285Y-220900761D01*
X68040000Y-220900761D01*
X68325714Y-220996000D01*
X68516190Y-221186476D01*
X68611428Y-221376952D01*
X68706666Y-221757904D01*
X68706666Y-222043619D01*
X68611428Y-222424571D01*
X68516190Y-222615047D01*
X68325714Y-222805523D01*
X68040000Y-222900761D01*
X67849523Y-222900761D01*
X67563809Y-222805523D01*
X67468571Y-222710285D01*
X67468571Y-222043619D01*
X67849523Y-222043619D01*
X66611428Y-222900761D02*
X66611428Y-220900761D01*
X65468571Y-222900761D01*
X65468571Y-220900761D01*
X64516190Y-222900761D02*
X64516190Y-220900761D01*
X64040000Y-220900761D01*
X63754285Y-220996000D01*
X63563809Y-221186476D01*
X63468571Y-221376952D01*
X63373333Y-221757904D01*
X63373333Y-222043619D01*
X63468571Y-222424571D01*
X63563809Y-222615047D01*
X63754285Y-222805523D01*
X64040000Y-222900761D01*
X64516190Y-222900761D01*
X68040000Y-226996761D02*
X67659047Y-226996761D01*
X67468571Y-227092000D01*
X67278095Y-227282476D01*
X67182857Y-227663428D01*
X67182857Y-228330095D01*
X67278095Y-228711047D01*
X67468571Y-228901523D01*
X67659047Y-228996761D01*
X68040000Y-228996761D01*
X68230476Y-228901523D01*
X68420952Y-228711047D01*
X68516190Y-228330095D01*
X68516190Y-227663428D01*
X68420952Y-227282476D01*
X68230476Y-227092000D01*
X68040000Y-226996761D01*
X66325714Y-226996761D02*
X66325714Y-228615809D01*
X66230476Y-228806285D01*
X66135238Y-228901523D01*
X65944761Y-228996761D01*
X65563809Y-228996761D01*
X65373333Y-228901523D01*
X65278095Y-228806285D01*
X65182857Y-228615809D01*
X65182857Y-226996761D01*
X64516190Y-226996761D02*
X63373333Y-226996761D01*
X63944761Y-228996761D02*
X63944761Y-226996761D01*
D11*
X380973428Y-198434190D02*
X381140095Y-198196095D01*
X381259142Y-198434190D02*
X381259142Y-197934190D01*
X381068666Y-197934190D01*
X381021047Y-197958000D01*
X380997238Y-197981809D01*
X380973428Y-198029428D01*
X380973428Y-198100857D01*
X380997238Y-198148476D01*
X381021047Y-198172285D01*
X381068666Y-198196095D01*
X381259142Y-198196095D01*
X380806761Y-197934190D02*
X380497238Y-197934190D01*
X380663904Y-198124666D01*
X380592476Y-198124666D01*
X380544857Y-198148476D01*
X380521047Y-198172285D01*
X380497238Y-198219904D01*
X380497238Y-198338952D01*
X380521047Y-198386571D01*
X380544857Y-198410380D01*
X380592476Y-198434190D01*
X380735333Y-198434190D01*
X380782952Y-198410380D01*
X380806761Y-198386571D01*
X380330571Y-197934190D02*
X380021047Y-197934190D01*
X380187714Y-198124666D01*
X380116285Y-198124666D01*
X380068666Y-198148476D01*
X380044857Y-198172285D01*
X380021047Y-198219904D01*
X380021047Y-198338952D01*
X380044857Y-198386571D01*
X380068666Y-198410380D01*
X380116285Y-198434190D01*
X380259142Y-198434190D01*
X380306761Y-198410380D01*
X380330571Y-198386571D01*
X357605428Y-209229190D02*
X357772095Y-208991095D01*
X357891142Y-209229190D02*
X357891142Y-208729190D01*
X357700666Y-208729190D01*
X357653047Y-208753000D01*
X357629238Y-208776809D01*
X357605428Y-208824428D01*
X357605428Y-208895857D01*
X357629238Y-208943476D01*
X357653047Y-208967285D01*
X357700666Y-208991095D01*
X357891142Y-208991095D01*
X357414952Y-208776809D02*
X357391142Y-208753000D01*
X357343523Y-208729190D01*
X357224476Y-208729190D01*
X357176857Y-208753000D01*
X357153047Y-208776809D01*
X357129238Y-208824428D01*
X357129238Y-208872047D01*
X357153047Y-208943476D01*
X357438761Y-209229190D01*
X357129238Y-209229190D01*
X356938761Y-208776809D02*
X356914952Y-208753000D01*
X356867333Y-208729190D01*
X356748285Y-208729190D01*
X356700666Y-208753000D01*
X356676857Y-208776809D01*
X356653047Y-208824428D01*
X356653047Y-208872047D01*
X356676857Y-208943476D01*
X356962571Y-209229190D01*
X356653047Y-209229190D01*
X357605428Y-207705190D02*
X357772095Y-207467095D01*
X357891142Y-207705190D02*
X357891142Y-207205190D01*
X357700666Y-207205190D01*
X357653047Y-207229000D01*
X357629238Y-207252809D01*
X357605428Y-207300428D01*
X357605428Y-207371857D01*
X357629238Y-207419476D01*
X357653047Y-207443285D01*
X357700666Y-207467095D01*
X357891142Y-207467095D01*
X357414952Y-207252809D02*
X357391142Y-207229000D01*
X357343523Y-207205190D01*
X357224476Y-207205190D01*
X357176857Y-207229000D01*
X357153047Y-207252809D01*
X357129238Y-207300428D01*
X357129238Y-207348047D01*
X357153047Y-207419476D01*
X357438761Y-207705190D01*
X357129238Y-207705190D01*
X356653047Y-207705190D02*
X356938761Y-207705190D01*
X356795904Y-207705190D02*
X356795904Y-207205190D01*
X356843523Y-207276619D01*
X356891142Y-207324238D01*
X356938761Y-207348047D01*
X357605428Y-206054190D02*
X357772095Y-205816095D01*
X357891142Y-206054190D02*
X357891142Y-205554190D01*
X357700666Y-205554190D01*
X357653047Y-205578000D01*
X357629238Y-205601809D01*
X357605428Y-205649428D01*
X357605428Y-205720857D01*
X357629238Y-205768476D01*
X357653047Y-205792285D01*
X357700666Y-205816095D01*
X357891142Y-205816095D01*
X357414952Y-205601809D02*
X357391142Y-205578000D01*
X357343523Y-205554190D01*
X357224476Y-205554190D01*
X357176857Y-205578000D01*
X357153047Y-205601809D01*
X357129238Y-205649428D01*
X357129238Y-205697047D01*
X357153047Y-205768476D01*
X357438761Y-206054190D01*
X357129238Y-206054190D01*
X356819714Y-205554190D02*
X356772095Y-205554190D01*
X356724476Y-205578000D01*
X356700666Y-205601809D01*
X356676857Y-205649428D01*
X356653047Y-205744666D01*
X356653047Y-205863714D01*
X356676857Y-205958952D01*
X356700666Y-206006571D01*
X356724476Y-206030380D01*
X356772095Y-206054190D01*
X356819714Y-206054190D01*
X356867333Y-206030380D01*
X356891142Y-206006571D01*
X356914952Y-205958952D01*
X356938761Y-205863714D01*
X356938761Y-205744666D01*
X356914952Y-205649428D01*
X356891142Y-205601809D01*
X356867333Y-205578000D01*
X356819714Y-205554190D01*
X357605428Y-204530190D02*
X357772095Y-204292095D01*
X357891142Y-204530190D02*
X357891142Y-204030190D01*
X357700666Y-204030190D01*
X357653047Y-204054000D01*
X357629238Y-204077809D01*
X357605428Y-204125428D01*
X357605428Y-204196857D01*
X357629238Y-204244476D01*
X357653047Y-204268285D01*
X357700666Y-204292095D01*
X357891142Y-204292095D01*
X357129238Y-204530190D02*
X357414952Y-204530190D01*
X357272095Y-204530190D02*
X357272095Y-204030190D01*
X357319714Y-204101619D01*
X357367333Y-204149238D01*
X357414952Y-204173047D01*
X356891142Y-204530190D02*
X356795904Y-204530190D01*
X356748285Y-204506380D01*
X356724476Y-204482571D01*
X356676857Y-204411142D01*
X356653047Y-204315904D01*
X356653047Y-204125428D01*
X356676857Y-204077809D01*
X356700666Y-204054000D01*
X356748285Y-204030190D01*
X356843523Y-204030190D01*
X356891142Y-204054000D01*
X356914952Y-204077809D01*
X356938761Y-204125428D01*
X356938761Y-204244476D01*
X356914952Y-204292095D01*
X356891142Y-204315904D01*
X356843523Y-204339714D01*
X356748285Y-204339714D01*
X356700666Y-204315904D01*
X356676857Y-204292095D01*
X356653047Y-204244476D01*
X357605428Y-203006190D02*
X357772095Y-202768095D01*
X357891142Y-203006190D02*
X357891142Y-202506190D01*
X357700666Y-202506190D01*
X357653047Y-202530000D01*
X357629238Y-202553809D01*
X357605428Y-202601428D01*
X357605428Y-202672857D01*
X357629238Y-202720476D01*
X357653047Y-202744285D01*
X357700666Y-202768095D01*
X357891142Y-202768095D01*
X357129238Y-203006190D02*
X357414952Y-203006190D01*
X357272095Y-203006190D02*
X357272095Y-202506190D01*
X357319714Y-202577619D01*
X357367333Y-202625238D01*
X357414952Y-202649047D01*
X356843523Y-202720476D02*
X356891142Y-202696666D01*
X356914952Y-202672857D01*
X356938761Y-202625238D01*
X356938761Y-202601428D01*
X356914952Y-202553809D01*
X356891142Y-202530000D01*
X356843523Y-202506190D01*
X356748285Y-202506190D01*
X356700666Y-202530000D01*
X356676857Y-202553809D01*
X356653047Y-202601428D01*
X356653047Y-202625238D01*
X356676857Y-202672857D01*
X356700666Y-202696666D01*
X356748285Y-202720476D01*
X356843523Y-202720476D01*
X356891142Y-202744285D01*
X356914952Y-202768095D01*
X356938761Y-202815714D01*
X356938761Y-202910952D01*
X356914952Y-202958571D01*
X356891142Y-202982380D01*
X356843523Y-203006190D01*
X356748285Y-203006190D01*
X356700666Y-202982380D01*
X356676857Y-202958571D01*
X356653047Y-202910952D01*
X356653047Y-202815714D01*
X356676857Y-202768095D01*
X356700666Y-202744285D01*
X356748285Y-202720476D01*
X357605428Y-201482190D02*
X357772095Y-201244095D01*
X357891142Y-201482190D02*
X357891142Y-200982190D01*
X357700666Y-200982190D01*
X357653047Y-201006000D01*
X357629238Y-201029809D01*
X357605428Y-201077428D01*
X357605428Y-201148857D01*
X357629238Y-201196476D01*
X357653047Y-201220285D01*
X357700666Y-201244095D01*
X357891142Y-201244095D01*
X357129238Y-201482190D02*
X357414952Y-201482190D01*
X357272095Y-201482190D02*
X357272095Y-200982190D01*
X357319714Y-201053619D01*
X357367333Y-201101238D01*
X357414952Y-201125047D01*
X356962571Y-200982190D02*
X356629238Y-200982190D01*
X356843523Y-201482190D01*
X357605428Y-199958190D02*
X357772095Y-199720095D01*
X357891142Y-199958190D02*
X357891142Y-199458190D01*
X357700666Y-199458190D01*
X357653047Y-199482000D01*
X357629238Y-199505809D01*
X357605428Y-199553428D01*
X357605428Y-199624857D01*
X357629238Y-199672476D01*
X357653047Y-199696285D01*
X357700666Y-199720095D01*
X357891142Y-199720095D01*
X357129238Y-199958190D02*
X357414952Y-199958190D01*
X357272095Y-199958190D02*
X357272095Y-199458190D01*
X357319714Y-199529619D01*
X357367333Y-199577238D01*
X357414952Y-199601047D01*
X356700666Y-199458190D02*
X356795904Y-199458190D01*
X356843523Y-199482000D01*
X356867333Y-199505809D01*
X356914952Y-199577238D01*
X356938761Y-199672476D01*
X356938761Y-199862952D01*
X356914952Y-199910571D01*
X356891142Y-199934380D01*
X356843523Y-199958190D01*
X356748285Y-199958190D01*
X356700666Y-199934380D01*
X356676857Y-199910571D01*
X356653047Y-199862952D01*
X356653047Y-199743904D01*
X356676857Y-199696285D01*
X356700666Y-199672476D01*
X356748285Y-199648666D01*
X356843523Y-199648666D01*
X356891142Y-199672476D01*
X356914952Y-199696285D01*
X356938761Y-199743904D01*
X357605428Y-198434190D02*
X357772095Y-198196095D01*
X357891142Y-198434190D02*
X357891142Y-197934190D01*
X357700666Y-197934190D01*
X357653047Y-197958000D01*
X357629238Y-197981809D01*
X357605428Y-198029428D01*
X357605428Y-198100857D01*
X357629238Y-198148476D01*
X357653047Y-198172285D01*
X357700666Y-198196095D01*
X357891142Y-198196095D01*
X357129238Y-198434190D02*
X357414952Y-198434190D01*
X357272095Y-198434190D02*
X357272095Y-197934190D01*
X357319714Y-198005619D01*
X357367333Y-198053238D01*
X357414952Y-198077047D01*
X356676857Y-197934190D02*
X356914952Y-197934190D01*
X356938761Y-198172285D01*
X356914952Y-198148476D01*
X356867333Y-198124666D01*
X356748285Y-198124666D01*
X356700666Y-198148476D01*
X356676857Y-198172285D01*
X356653047Y-198219904D01*
X356653047Y-198338952D01*
X356676857Y-198386571D01*
X356700666Y-198410380D01*
X356748285Y-198434190D01*
X356867333Y-198434190D01*
X356914952Y-198410380D01*
X356938761Y-198386571D01*
X357605428Y-196910190D02*
X357772095Y-196672095D01*
X357891142Y-196910190D02*
X357891142Y-196410190D01*
X357700666Y-196410190D01*
X357653047Y-196434000D01*
X357629238Y-196457809D01*
X357605428Y-196505428D01*
X357605428Y-196576857D01*
X357629238Y-196624476D01*
X357653047Y-196648285D01*
X357700666Y-196672095D01*
X357891142Y-196672095D01*
X357129238Y-196910190D02*
X357414952Y-196910190D01*
X357272095Y-196910190D02*
X357272095Y-196410190D01*
X357319714Y-196481619D01*
X357367333Y-196529238D01*
X357414952Y-196553047D01*
X356700666Y-196576857D02*
X356700666Y-196910190D01*
X356819714Y-196386380D02*
X356938761Y-196743523D01*
X356629238Y-196743523D01*
X357605428Y-195386190D02*
X357772095Y-195148095D01*
X357891142Y-195386190D02*
X357891142Y-194886190D01*
X357700666Y-194886190D01*
X357653047Y-194910000D01*
X357629238Y-194933809D01*
X357605428Y-194981428D01*
X357605428Y-195052857D01*
X357629238Y-195100476D01*
X357653047Y-195124285D01*
X357700666Y-195148095D01*
X357891142Y-195148095D01*
X357129238Y-195386190D02*
X357414952Y-195386190D01*
X357272095Y-195386190D02*
X357272095Y-194886190D01*
X357319714Y-194957619D01*
X357367333Y-195005238D01*
X357414952Y-195029047D01*
X356962571Y-194886190D02*
X356653047Y-194886190D01*
X356819714Y-195076666D01*
X356748285Y-195076666D01*
X356700666Y-195100476D01*
X356676857Y-195124285D01*
X356653047Y-195171904D01*
X356653047Y-195290952D01*
X356676857Y-195338571D01*
X356700666Y-195362380D01*
X356748285Y-195386190D01*
X356891142Y-195386190D01*
X356938761Y-195362380D01*
X356962571Y-195338571D01*
X390244428Y-194624190D02*
X390411095Y-194386095D01*
X390530142Y-194624190D02*
X390530142Y-194124190D01*
X390339666Y-194124190D01*
X390292047Y-194148000D01*
X390268238Y-194171809D01*
X390244428Y-194219428D01*
X390244428Y-194290857D01*
X390268238Y-194338476D01*
X390292047Y-194362285D01*
X390339666Y-194386095D01*
X390530142Y-194386095D01*
X389768238Y-194624190D02*
X390053952Y-194624190D01*
X389911095Y-194624190D02*
X389911095Y-194124190D01*
X389958714Y-194195619D01*
X390006333Y-194243238D01*
X390053952Y-194267047D01*
X389577761Y-194171809D02*
X389553952Y-194148000D01*
X389506333Y-194124190D01*
X389387285Y-194124190D01*
X389339666Y-194148000D01*
X389315857Y-194171809D01*
X389292047Y-194219428D01*
X389292047Y-194267047D01*
X389315857Y-194338476D01*
X389601571Y-194624190D01*
X389292047Y-194624190D01*
X390244428Y-190052190D02*
X390411095Y-189814095D01*
X390530142Y-190052190D02*
X390530142Y-189552190D01*
X390339666Y-189552190D01*
X390292047Y-189576000D01*
X390268238Y-189599809D01*
X390244428Y-189647428D01*
X390244428Y-189718857D01*
X390268238Y-189766476D01*
X390292047Y-189790285D01*
X390339666Y-189814095D01*
X390530142Y-189814095D01*
X389768238Y-190052190D02*
X390053952Y-190052190D01*
X389911095Y-190052190D02*
X389911095Y-189552190D01*
X389958714Y-189623619D01*
X390006333Y-189671238D01*
X390053952Y-189695047D01*
X389292047Y-190052190D02*
X389577761Y-190052190D01*
X389434904Y-190052190D02*
X389434904Y-189552190D01*
X389482523Y-189623619D01*
X389530142Y-189671238D01*
X389577761Y-189695047D01*
X390244428Y-191576190D02*
X390411095Y-191338095D01*
X390530142Y-191576190D02*
X390530142Y-191076190D01*
X390339666Y-191076190D01*
X390292047Y-191100000D01*
X390268238Y-191123809D01*
X390244428Y-191171428D01*
X390244428Y-191242857D01*
X390268238Y-191290476D01*
X390292047Y-191314285D01*
X390339666Y-191338095D01*
X390530142Y-191338095D01*
X389768238Y-191576190D02*
X390053952Y-191576190D01*
X389911095Y-191576190D02*
X389911095Y-191076190D01*
X389958714Y-191147619D01*
X390006333Y-191195238D01*
X390053952Y-191219047D01*
X389458714Y-191076190D02*
X389411095Y-191076190D01*
X389363476Y-191100000D01*
X389339666Y-191123809D01*
X389315857Y-191171428D01*
X389292047Y-191266666D01*
X389292047Y-191385714D01*
X389315857Y-191480952D01*
X389339666Y-191528571D01*
X389363476Y-191552380D01*
X389411095Y-191576190D01*
X389458714Y-191576190D01*
X389506333Y-191552380D01*
X389530142Y-191528571D01*
X389553952Y-191480952D01*
X389577761Y-191385714D01*
X389577761Y-191266666D01*
X389553952Y-191171428D01*
X389530142Y-191123809D01*
X389506333Y-191100000D01*
X389458714Y-191076190D01*
X390260333Y-193100190D02*
X390427000Y-192862095D01*
X390546047Y-193100190D02*
X390546047Y-192600190D01*
X390355571Y-192600190D01*
X390307952Y-192624000D01*
X390284142Y-192647809D01*
X390260333Y-192695428D01*
X390260333Y-192766857D01*
X390284142Y-192814476D01*
X390307952Y-192838285D01*
X390355571Y-192862095D01*
X390546047Y-192862095D01*
X390022238Y-193100190D02*
X389927000Y-193100190D01*
X389879380Y-193076380D01*
X389855571Y-193052571D01*
X389807952Y-192981142D01*
X389784142Y-192885904D01*
X389784142Y-192695428D01*
X389807952Y-192647809D01*
X389831761Y-192624000D01*
X389879380Y-192600190D01*
X389974619Y-192600190D01*
X390022238Y-192624000D01*
X390046047Y-192647809D01*
X390069857Y-192695428D01*
X390069857Y-192814476D01*
X390046047Y-192862095D01*
X390022238Y-192885904D01*
X389974619Y-192909714D01*
X389879380Y-192909714D01*
X389831761Y-192885904D01*
X389807952Y-192862095D01*
X389784142Y-192814476D01*
X390260333Y-209864190D02*
X390427000Y-209626095D01*
X390546047Y-209864190D02*
X390546047Y-209364190D01*
X390355571Y-209364190D01*
X390307952Y-209388000D01*
X390284142Y-209411809D01*
X390260333Y-209459428D01*
X390260333Y-209530857D01*
X390284142Y-209578476D01*
X390307952Y-209602285D01*
X390355571Y-209626095D01*
X390546047Y-209626095D01*
X389974619Y-209578476D02*
X390022238Y-209554666D01*
X390046047Y-209530857D01*
X390069857Y-209483238D01*
X390069857Y-209459428D01*
X390046047Y-209411809D01*
X390022238Y-209388000D01*
X389974619Y-209364190D01*
X389879380Y-209364190D01*
X389831761Y-209388000D01*
X389807952Y-209411809D01*
X389784142Y-209459428D01*
X389784142Y-209483238D01*
X389807952Y-209530857D01*
X389831761Y-209554666D01*
X389879380Y-209578476D01*
X389974619Y-209578476D01*
X390022238Y-209602285D01*
X390046047Y-209626095D01*
X390069857Y-209673714D01*
X390069857Y-209768952D01*
X390046047Y-209816571D01*
X390022238Y-209840380D01*
X389974619Y-209864190D01*
X389879380Y-209864190D01*
X389831761Y-209840380D01*
X389807952Y-209816571D01*
X389784142Y-209768952D01*
X389784142Y-209673714D01*
X389807952Y-209626095D01*
X389831761Y-209602285D01*
X389879380Y-209578476D01*
X390260333Y-208340190D02*
X390427000Y-208102095D01*
X390546047Y-208340190D02*
X390546047Y-207840190D01*
X390355571Y-207840190D01*
X390307952Y-207864000D01*
X390284142Y-207887809D01*
X390260333Y-207935428D01*
X390260333Y-208006857D01*
X390284142Y-208054476D01*
X390307952Y-208078285D01*
X390355571Y-208102095D01*
X390546047Y-208102095D01*
X390093666Y-207840190D02*
X389760333Y-207840190D01*
X389974619Y-208340190D01*
X390260333Y-206816190D02*
X390427000Y-206578095D01*
X390546047Y-206816190D02*
X390546047Y-206316190D01*
X390355571Y-206316190D01*
X390307952Y-206340000D01*
X390284142Y-206363809D01*
X390260333Y-206411428D01*
X390260333Y-206482857D01*
X390284142Y-206530476D01*
X390307952Y-206554285D01*
X390355571Y-206578095D01*
X390546047Y-206578095D01*
X389831761Y-206316190D02*
X389927000Y-206316190D01*
X389974619Y-206340000D01*
X389998428Y-206363809D01*
X390046047Y-206435238D01*
X390069857Y-206530476D01*
X390069857Y-206720952D01*
X390046047Y-206768571D01*
X390022238Y-206792380D01*
X389974619Y-206816190D01*
X389879380Y-206816190D01*
X389831761Y-206792380D01*
X389807952Y-206768571D01*
X389784142Y-206720952D01*
X389784142Y-206601904D01*
X389807952Y-206554285D01*
X389831761Y-206530476D01*
X389879380Y-206506666D01*
X389974619Y-206506666D01*
X390022238Y-206530476D01*
X390046047Y-206554285D01*
X390069857Y-206601904D01*
X390260333Y-205292190D02*
X390427000Y-205054095D01*
X390546047Y-205292190D02*
X390546047Y-204792190D01*
X390355571Y-204792190D01*
X390307952Y-204816000D01*
X390284142Y-204839809D01*
X390260333Y-204887428D01*
X390260333Y-204958857D01*
X390284142Y-205006476D01*
X390307952Y-205030285D01*
X390355571Y-205054095D01*
X390546047Y-205054095D01*
X389807952Y-204792190D02*
X390046047Y-204792190D01*
X390069857Y-205030285D01*
X390046047Y-205006476D01*
X389998428Y-204982666D01*
X389879380Y-204982666D01*
X389831761Y-205006476D01*
X389807952Y-205030285D01*
X389784142Y-205077904D01*
X389784142Y-205196952D01*
X389807952Y-205244571D01*
X389831761Y-205268380D01*
X389879380Y-205292190D01*
X389998428Y-205292190D01*
X390046047Y-205268380D01*
X390069857Y-205244571D01*
X390260333Y-203768190D02*
X390427000Y-203530095D01*
X390546047Y-203768190D02*
X390546047Y-203268190D01*
X390355571Y-203268190D01*
X390307952Y-203292000D01*
X390284142Y-203315809D01*
X390260333Y-203363428D01*
X390260333Y-203434857D01*
X390284142Y-203482476D01*
X390307952Y-203506285D01*
X390355571Y-203530095D01*
X390546047Y-203530095D01*
X389831761Y-203434857D02*
X389831761Y-203768190D01*
X389950809Y-203244380D02*
X390069857Y-203601523D01*
X389760333Y-203601523D01*
X390260333Y-202244190D02*
X390427000Y-202006095D01*
X390546047Y-202244190D02*
X390546047Y-201744190D01*
X390355571Y-201744190D01*
X390307952Y-201768000D01*
X390284142Y-201791809D01*
X390260333Y-201839428D01*
X390260333Y-201910857D01*
X390284142Y-201958476D01*
X390307952Y-201982285D01*
X390355571Y-202006095D01*
X390546047Y-202006095D01*
X390093666Y-201744190D02*
X389784142Y-201744190D01*
X389950809Y-201934666D01*
X389879380Y-201934666D01*
X389831761Y-201958476D01*
X389807952Y-201982285D01*
X389784142Y-202029904D01*
X389784142Y-202148952D01*
X389807952Y-202196571D01*
X389831761Y-202220380D01*
X389879380Y-202244190D01*
X390022238Y-202244190D01*
X390069857Y-202220380D01*
X390093666Y-202196571D01*
X390260333Y-200720190D02*
X390427000Y-200482095D01*
X390546047Y-200720190D02*
X390546047Y-200220190D01*
X390355571Y-200220190D01*
X390307952Y-200244000D01*
X390284142Y-200267809D01*
X390260333Y-200315428D01*
X390260333Y-200386857D01*
X390284142Y-200434476D01*
X390307952Y-200458285D01*
X390355571Y-200482095D01*
X390546047Y-200482095D01*
X390069857Y-200267809D02*
X390046047Y-200244000D01*
X389998428Y-200220190D01*
X389879380Y-200220190D01*
X389831761Y-200244000D01*
X389807952Y-200267809D01*
X389784142Y-200315428D01*
X389784142Y-200363047D01*
X389807952Y-200434476D01*
X390093666Y-200720190D01*
X389784142Y-200720190D01*
X390260333Y-199196190D02*
X390427000Y-198958095D01*
X390546047Y-199196190D02*
X390546047Y-198696190D01*
X390355571Y-198696190D01*
X390307952Y-198720000D01*
X390284142Y-198743809D01*
X390260333Y-198791428D01*
X390260333Y-198862857D01*
X390284142Y-198910476D01*
X390307952Y-198934285D01*
X390355571Y-198958095D01*
X390546047Y-198958095D01*
X389784142Y-199196190D02*
X390069857Y-199196190D01*
X389927000Y-199196190D02*
X389927000Y-198696190D01*
X389974619Y-198767619D01*
X390022238Y-198815238D01*
X390069857Y-198839047D01*
D10*
X386079904Y-210526380D02*
X386079904Y-211335904D01*
X386032285Y-211431142D01*
X385984666Y-211478761D01*
X385889428Y-211526380D01*
X385698952Y-211526380D01*
X385603714Y-211478761D01*
X385556095Y-211431142D01*
X385508476Y-211335904D01*
X385508476Y-210526380D01*
X384556095Y-210526380D02*
X385032285Y-210526380D01*
X385079904Y-211002571D01*
X385032285Y-210954952D01*
X384937047Y-210907333D01*
X384698952Y-210907333D01*
X384603714Y-210954952D01*
X384556095Y-211002571D01*
X384508476Y-211097809D01*
X384508476Y-211335904D01*
X384556095Y-211431142D01*
X384603714Y-211478761D01*
X384698952Y-211526380D01*
X384937047Y-211526380D01*
X385032285Y-211478761D01*
X385079904Y-211431142D01*
X370839904Y-210330380D02*
X370839904Y-211139904D01*
X370792285Y-211235142D01*
X370744666Y-211282761D01*
X370649428Y-211330380D01*
X370458952Y-211330380D01*
X370363714Y-211282761D01*
X370316095Y-211235142D01*
X370268476Y-211139904D01*
X370268476Y-210330380D01*
X369887523Y-210330380D02*
X369220857Y-210330380D01*
X369649428Y-211330380D01*
X386079904Y-187862380D02*
X386079904Y-188671904D01*
X386032285Y-188767142D01*
X385984666Y-188814761D01*
X385889428Y-188862380D01*
X385698952Y-188862380D01*
X385603714Y-188814761D01*
X385556095Y-188767142D01*
X385508476Y-188671904D01*
X385508476Y-187862380D01*
X385127523Y-187862380D02*
X384508476Y-187862380D01*
X384841809Y-188243333D01*
X384698952Y-188243333D01*
X384603714Y-188290952D01*
X384556095Y-188338571D01*
X384508476Y-188433809D01*
X384508476Y-188671904D01*
X384556095Y-188767142D01*
X384603714Y-188814761D01*
X384698952Y-188862380D01*
X384984666Y-188862380D01*
X385079904Y-188814761D01*
X385127523Y-188767142D01*
D12*
X380223500Y-199975742D02*
X380223500Y-200450258D01*
X381268500Y-199975742D02*
X381268500Y-200450258D01*
X359934258Y-209486500D02*
X359459742Y-209486500D01*
X359934258Y-208441500D02*
X359459742Y-208441500D01*
X359934258Y-207952716D02*
X359459742Y-207952716D01*
X359934258Y-206907716D02*
X359459742Y-206907716D01*
X359934258Y-206418939D02*
X359459742Y-206418939D01*
X359934258Y-205373939D02*
X359459742Y-205373939D01*
X359934258Y-204885162D02*
X359459742Y-204885162D01*
X359934258Y-203840162D02*
X359459742Y-203840162D01*
X359934258Y-203351385D02*
X359459742Y-203351385D01*
X359934258Y-202306385D02*
X359459742Y-202306385D01*
X359934258Y-201817608D02*
X359459742Y-201817608D01*
X359934258Y-200772608D02*
X359459742Y-200772608D01*
X359934258Y-200283831D02*
X359459742Y-200283831D01*
X359934258Y-199238831D02*
X359459742Y-199238831D01*
X359934258Y-198750054D02*
X359459742Y-198750054D01*
X359934258Y-197705054D02*
X359459742Y-197705054D01*
X359934258Y-197216277D02*
X359459742Y-197216277D01*
X359934258Y-196171277D02*
X359459742Y-196171277D01*
X359934258Y-195682500D02*
X359459742Y-195682500D01*
X359934258Y-194637500D02*
X359459742Y-194637500D01*
X392446258Y-194920500D02*
X391971742Y-194920500D01*
X392446258Y-193875500D02*
X391971742Y-193875500D01*
X392446258Y-190348500D02*
X391971742Y-190348500D01*
X392446258Y-189303500D02*
X391971742Y-189303500D01*
X392446258Y-191872500D02*
X391971742Y-191872500D01*
X392446258Y-190827500D02*
X391971742Y-190827500D01*
X392446258Y-193396500D02*
X391971742Y-193396500D01*
X392446258Y-192351500D02*
X391971742Y-192351500D01*
X391971742Y-209115500D02*
X392446258Y-209115500D01*
X391971742Y-210160500D02*
X392446258Y-210160500D01*
X391971742Y-207591500D02*
X392446258Y-207591500D01*
X391971742Y-208636500D02*
X392446258Y-208636500D01*
X391971742Y-206067500D02*
X392446258Y-206067500D01*
X391971742Y-207112500D02*
X392446258Y-207112500D01*
X391971742Y-204543500D02*
X392446258Y-204543500D01*
X391971742Y-205588500D02*
X392446258Y-205588500D01*
X391971742Y-203019500D02*
X392446258Y-203019500D01*
X391971742Y-204064500D02*
X392446258Y-204064500D01*
X391971742Y-201495500D02*
X392446258Y-201495500D01*
X391971742Y-202540500D02*
X392446258Y-202540500D01*
X391971742Y-199971500D02*
X392446258Y-199971500D01*
X391971742Y-201016500D02*
X392446258Y-201016500D01*
X391971742Y-198447500D02*
X392446258Y-198447500D01*
X391971742Y-199492500D02*
X392446258Y-199492500D01*
G36*
X269178974Y-223947619D02*
G01*
X269198917Y-223967834D01*
X269202860Y-223975328D01*
X269201416Y-223989000D01*
X269197694Y-223988048D01*
X269177750Y-223967834D01*
X269173808Y-223960339D01*
X269175252Y-223946667D01*
X269178974Y-223947619D01*
G37*
G36*
X262669000Y-222581417D02*
G01*
X262658417Y-222592000D01*
X262647834Y-222581417D01*
X262658417Y-222570834D01*
X262669000Y-222581417D01*
G37*
G36*
X261644438Y-224324396D02*
G01*
X261637904Y-224333799D01*
X261620001Y-224348834D01*
X261617042Y-224348627D01*
X261612381Y-224336375D01*
X261635104Y-224315062D01*
X261646933Y-224309912D01*
X261644438Y-224324396D01*
G37*
G36*
X262838334Y-222285084D02*
G01*
X262827750Y-222295667D01*
X262817167Y-222285084D01*
X262827750Y-222274500D01*
X262838334Y-222285084D01*
G37*
G36*
X265424428Y-217893296D02*
G01*
X265426679Y-217899303D01*
X265429811Y-217904986D01*
X265452306Y-217942463D01*
X265495277Y-218012765D01*
X265557417Y-218113786D01*
X265637422Y-218243423D01*
X265733987Y-218399569D01*
X265845808Y-218580119D01*
X265971578Y-218782969D01*
X266109994Y-219006013D01*
X266259750Y-219247145D01*
X266419542Y-219504262D01*
X266588063Y-219775257D01*
X266764011Y-220058025D01*
X266946079Y-220350462D01*
X267021812Y-220472071D01*
X267203217Y-220763385D01*
X267378813Y-221045398D01*
X267547218Y-221315889D01*
X267707053Y-221572640D01*
X267856936Y-221813432D01*
X267995486Y-222036046D01*
X268121321Y-222238261D01*
X268233061Y-222417859D01*
X268329324Y-222572621D01*
X268408730Y-222700326D01*
X268469898Y-222798757D01*
X268511446Y-222865694D01*
X268531993Y-222898917D01*
X268548001Y-222924949D01*
X268601422Y-223011331D01*
X268663071Y-223110520D01*
X268722589Y-223205834D01*
X268756655Y-223261554D01*
X268789514Y-223319321D01*
X268805711Y-223353591D01*
X268802098Y-223358328D01*
X268794564Y-223353765D01*
X268774369Y-223351914D01*
X268742477Y-223361026D01*
X268694084Y-223383449D01*
X268624383Y-223421536D01*
X268528569Y-223477635D01*
X268401837Y-223554098D01*
X268376590Y-223569429D01*
X268267081Y-223635469D01*
X268171181Y-223692574D01*
X268094511Y-223737448D01*
X268042692Y-223766794D01*
X268021344Y-223777312D01*
X268010244Y-223767908D01*
X267978281Y-223730428D01*
X267931868Y-223670991D01*
X267876725Y-223596737D01*
X267854830Y-223567283D01*
X267741508Y-223432648D01*
X267620668Y-223314686D01*
X267500493Y-223220759D01*
X267389167Y-223158226D01*
X267367385Y-223148900D01*
X267284340Y-223112803D01*
X267209250Y-223079503D01*
X267160454Y-223060973D01*
X267050339Y-223030578D01*
X266902294Y-222999206D01*
X266718998Y-222967222D01*
X266503133Y-222934991D01*
X266257379Y-222902876D01*
X265984417Y-222871243D01*
X265686926Y-222840456D01*
X265367589Y-222810880D01*
X265029084Y-222782880D01*
X264917995Y-222773769D01*
X264751720Y-222757418D01*
X264604595Y-222737944D01*
X264469540Y-222713277D01*
X264339477Y-222681346D01*
X264207330Y-222640080D01*
X264066019Y-222587407D01*
X263908466Y-222521257D01*
X263727595Y-222439559D01*
X263516326Y-222340241D01*
X262947331Y-222069658D01*
X263424733Y-221256621D01*
X263449038Y-221215227D01*
X263559209Y-221027572D01*
X263685552Y-220812338D01*
X263823864Y-220576689D01*
X263969941Y-220327788D01*
X264119580Y-220072797D01*
X264268576Y-219818880D01*
X264412726Y-219573198D01*
X264547826Y-219342917D01*
X264699738Y-219083960D01*
X264836716Y-218850511D01*
X264955006Y-218649055D01*
X265056002Y-218477304D01*
X265141099Y-218332965D01*
X265211691Y-218213748D01*
X265269174Y-218117363D01*
X265314941Y-218041517D01*
X265350387Y-217983921D01*
X265376907Y-217942284D01*
X265395895Y-217914314D01*
X265408747Y-217897722D01*
X265416857Y-217890215D01*
X265421619Y-217889503D01*
X265424428Y-217893296D01*
G37*
G36*
X262118667Y-223512750D02*
G01*
X262108084Y-223523334D01*
X262097500Y-223512750D01*
X262108084Y-223502167D01*
X262118667Y-223512750D01*
G37*
G36*
X269115474Y-223841786D02*
G01*
X269135417Y-223862000D01*
X269139360Y-223869494D01*
X269137916Y-223883167D01*
X269134194Y-223882214D01*
X269114250Y-223862000D01*
X269110308Y-223854506D01*
X269111752Y-223840834D01*
X269115474Y-223841786D01*
G37*
G36*
X267950331Y-229314586D02*
G01*
X267986224Y-229387564D01*
X268019499Y-229429271D01*
X268055136Y-229445323D01*
X268098120Y-229441341D01*
X268112996Y-229434636D01*
X268133346Y-229416294D01*
X268158582Y-229383050D01*
X268190952Y-229331032D01*
X268232702Y-229256367D01*
X268286079Y-229155182D01*
X268353332Y-229023602D01*
X268387852Y-228954936D01*
X268496498Y-228954936D01*
X268501598Y-229040987D01*
X268511874Y-229107576D01*
X268528622Y-229171361D01*
X268546843Y-229207652D01*
X268556506Y-229216863D01*
X268581193Y-229231574D01*
X268616193Y-229233054D01*
X268676970Y-229223143D01*
X268696940Y-229213942D01*
X268737366Y-229168925D01*
X268778117Y-229095402D01*
X268816206Y-229002271D01*
X268848644Y-228898435D01*
X268872446Y-228792793D01*
X268884624Y-228694245D01*
X268882190Y-228611692D01*
X268871934Y-228558005D01*
X268846431Y-228491831D01*
X268811146Y-228465499D01*
X268765107Y-228479066D01*
X268707348Y-228532588D01*
X268636899Y-228626122D01*
X268572701Y-228725077D01*
X268528371Y-228808261D01*
X268504196Y-228881120D01*
X268496498Y-228954936D01*
X268387852Y-228954936D01*
X268436706Y-228857756D01*
X268721956Y-228287557D01*
X268894835Y-228281404D01*
X269067713Y-228275250D01*
X269117803Y-228095334D01*
X269183744Y-227854050D01*
X269260800Y-227558758D01*
X269327990Y-227285135D01*
X269384657Y-227036238D01*
X269430143Y-226815126D01*
X269463791Y-226624858D01*
X269484945Y-226468491D01*
X269492948Y-226349084D01*
X269493111Y-226260023D01*
X269488476Y-226191833D01*
X269475186Y-226134375D01*
X269449455Y-226071637D01*
X269407498Y-225987607D01*
X269397918Y-225969116D01*
X269323883Y-225833837D01*
X269227334Y-225667873D01*
X269110184Y-225474392D01*
X268974348Y-225256565D01*
X268821739Y-225017560D01*
X268771350Y-224939232D01*
X268716051Y-224851626D01*
X268679658Y-224790057D01*
X268659611Y-224748987D01*
X268653351Y-224722873D01*
X268658317Y-224706178D01*
X268671951Y-224693360D01*
X268693629Y-224678809D01*
X268748323Y-224644174D01*
X268827103Y-224595357D01*
X268923136Y-224536588D01*
X269029584Y-224472097D01*
X269117067Y-224418921D01*
X269210597Y-224360995D01*
X269286078Y-224313037D01*
X269337399Y-224278939D01*
X269358450Y-224262594D01*
X269360149Y-224262666D01*
X269379431Y-224284600D01*
X269417192Y-224337132D01*
X269470574Y-224415982D01*
X269536716Y-224516869D01*
X269612758Y-224635512D01*
X269695842Y-224767630D01*
X269696238Y-224768267D01*
X269766779Y-224881468D01*
X269856599Y-225025631D01*
X269962620Y-225195815D01*
X270081763Y-225387079D01*
X270210953Y-225594483D01*
X270347110Y-225813084D01*
X270487157Y-226037943D01*
X270628016Y-226264117D01*
X270766610Y-226486667D01*
X270853718Y-226626545D01*
X271017950Y-226890271D01*
X271196566Y-227177093D01*
X271384513Y-227478899D01*
X271576740Y-227787578D01*
X271768197Y-228095020D01*
X271953833Y-228393113D01*
X272128596Y-228673747D01*
X272141361Y-228694245D01*
X272287436Y-228928810D01*
X272375489Y-229070327D01*
X272500450Y-229271598D01*
X272617240Y-229460223D01*
X272724076Y-229633295D01*
X272819176Y-229787906D01*
X272900757Y-229921150D01*
X272967037Y-230030120D01*
X273016231Y-230111910D01*
X273046559Y-230163612D01*
X273056236Y-230182320D01*
X273056228Y-230182329D01*
X273044557Y-230184481D01*
X273013088Y-230186720D01*
X272960567Y-230189064D01*
X272885743Y-230191534D01*
X272787365Y-230194149D01*
X272664180Y-230196927D01*
X272514936Y-230199888D01*
X272338383Y-230203051D01*
X272133268Y-230206437D01*
X271898339Y-230210063D01*
X271632346Y-230213950D01*
X271334035Y-230218117D01*
X271002155Y-230222583D01*
X270635455Y-230227367D01*
X270232682Y-230232489D01*
X269792586Y-230237968D01*
X269313913Y-230243823D01*
X268795413Y-230250074D01*
X268235834Y-230256740D01*
X268088531Y-230258489D01*
X267658080Y-230263638D01*
X267218615Y-230268947D01*
X266774086Y-230274365D01*
X266328442Y-230279844D01*
X265885632Y-230285332D01*
X265449607Y-230290781D01*
X265024315Y-230296141D01*
X264613706Y-230301361D01*
X264221731Y-230306391D01*
X263852338Y-230311182D01*
X263509477Y-230315683D01*
X263197098Y-230319846D01*
X262919151Y-230323619D01*
X262679584Y-230326953D01*
X262518616Y-230329204D01*
X262215036Y-230333315D01*
X261911031Y-230337269D01*
X261611351Y-230341014D01*
X261320749Y-230344494D01*
X261043972Y-230347657D01*
X260785773Y-230350449D01*
X260550901Y-230352815D01*
X260344106Y-230354704D01*
X260170139Y-230356060D01*
X260033750Y-230356831D01*
X259292917Y-230359766D01*
X259388167Y-230302967D01*
X259405853Y-230292341D01*
X259459978Y-230259704D01*
X259546623Y-230207398D01*
X259663640Y-230136721D01*
X259808882Y-230048971D01*
X259980202Y-229945446D01*
X260175452Y-229827444D01*
X260392486Y-229696262D01*
X260629156Y-229553199D01*
X260883314Y-229399552D01*
X261152813Y-229236619D01*
X261435506Y-229065698D01*
X261644548Y-228939300D01*
X265463000Y-228939300D01*
X265463005Y-228959804D01*
X265463553Y-229071076D01*
X265465952Y-229150106D01*
X265471533Y-229205643D01*
X265481623Y-229246433D01*
X265497551Y-229281224D01*
X265520647Y-229318763D01*
X265578293Y-229407667D01*
X265727022Y-229407202D01*
X265782696Y-229405601D01*
X265909902Y-229387189D01*
X266001984Y-229348649D01*
X266057957Y-229290526D01*
X266076834Y-229213367D01*
X266072903Y-229190637D01*
X266049562Y-229129117D01*
X266009723Y-229047246D01*
X265958583Y-228953933D01*
X265901337Y-228858085D01*
X265843182Y-228768609D01*
X265826729Y-228745947D01*
X266164274Y-228745947D01*
X266164819Y-228848906D01*
X266186676Y-228962890D01*
X266228778Y-229081092D01*
X266290055Y-229196708D01*
X266302505Y-229213367D01*
X266369439Y-229302928D01*
X266386892Y-229322185D01*
X266438098Y-229369111D01*
X266490878Y-229394631D01*
X266564729Y-229409374D01*
X266619395Y-229415911D01*
X266710325Y-229422974D01*
X266801813Y-229426527D01*
X266883186Y-229426429D01*
X266943770Y-229422541D01*
X266972889Y-229414722D01*
X266976461Y-229404537D01*
X266981881Y-229358988D01*
X266985612Y-229286822D01*
X266987000Y-229198068D01*
X266986733Y-229146530D01*
X266983472Y-229060661D01*
X266974501Y-228997035D01*
X266957336Y-228941988D01*
X266929490Y-228881857D01*
X266892453Y-228813836D01*
X266804171Y-228689721D01*
X266708539Y-228605732D01*
X266604256Y-228560582D01*
X266493897Y-228544670D01*
X266366158Y-228551240D01*
X266256622Y-228584414D01*
X266231398Y-228600333D01*
X266186111Y-228660821D01*
X266164274Y-228745947D01*
X265826729Y-228745947D01*
X265789315Y-228694413D01*
X265744930Y-228644405D01*
X265684397Y-228594203D01*
X265627139Y-228566449D01*
X265575228Y-228570581D01*
X265518772Y-228604870D01*
X265509605Y-228612156D01*
X265490082Y-228630546D01*
X265476951Y-228653251D01*
X265468946Y-228687875D01*
X265464797Y-228742023D01*
X265463238Y-228823296D01*
X265463000Y-228939300D01*
X261644548Y-228939300D01*
X261729246Y-228888087D01*
X262031885Y-228705084D01*
X262265072Y-228564130D01*
X262558815Y-228386738D01*
X262841163Y-228216409D01*
X262845858Y-228213580D01*
X264737989Y-228213580D01*
X264739742Y-228344353D01*
X264740260Y-228364635D01*
X264744464Y-228440054D01*
X264754841Y-228490188D01*
X264775895Y-228529133D01*
X264812125Y-228570984D01*
X264872000Y-228621657D01*
X264955000Y-228653541D01*
X264984362Y-228655937D01*
X265066746Y-228652560D01*
X265147048Y-228638325D01*
X265205285Y-228616213D01*
X265210586Y-228612492D01*
X265247902Y-228570922D01*
X265290125Y-228505431D01*
X265329263Y-228429636D01*
X265357326Y-228357151D01*
X265365133Y-228324010D01*
X265364663Y-228215787D01*
X265329597Y-228110287D01*
X265265193Y-228015954D01*
X265176706Y-227941233D01*
X265069393Y-227894566D01*
X265026862Y-227884713D01*
X264934156Y-227876524D01*
X264861911Y-227895662D01*
X264800077Y-227943969D01*
X264785319Y-227961107D01*
X264763051Y-227998786D01*
X264748502Y-228048373D01*
X264740528Y-228117446D01*
X264737989Y-228213580D01*
X262845858Y-228213580D01*
X263110050Y-228054385D01*
X263363407Y-227901903D01*
X263599168Y-227760204D01*
X263815263Y-227630526D01*
X264009626Y-227514110D01*
X264180189Y-227412194D01*
X264324884Y-227326019D01*
X264441644Y-227256823D01*
X264528401Y-227205846D01*
X264583087Y-227174327D01*
X264603635Y-227163505D01*
X264619312Y-227175016D01*
X264662261Y-227213924D01*
X264729084Y-227277450D01*
X264816738Y-227362615D01*
X264922183Y-227466438D01*
X265042375Y-227585941D01*
X265174272Y-227718145D01*
X265314834Y-227860069D01*
X265772690Y-228324010D01*
X266002750Y-228557128D01*
X266094017Y-228475652D01*
X266202018Y-228393591D01*
X266349334Y-228321683D01*
X266501375Y-228289844D01*
X266588723Y-228291998D01*
X266717258Y-228329313D01*
X266836909Y-228407747D01*
X266947358Y-228527070D01*
X267048287Y-228687052D01*
X267075030Y-228735069D01*
X267112151Y-228787558D01*
X267152306Y-228819620D01*
X267207286Y-228842806D01*
X267300130Y-228874441D01*
X267313799Y-228765036D01*
X267318010Y-228684910D01*
X267315243Y-228572662D01*
X267306266Y-228444474D01*
X267292251Y-228313420D01*
X267274369Y-228192577D01*
X267253791Y-228095021D01*
X267206989Y-227940268D01*
X267149163Y-227796822D01*
X267076316Y-227659584D01*
X266983719Y-227520675D01*
X266866642Y-227372218D01*
X266720357Y-227206334D01*
X266716303Y-227201907D01*
X266633473Y-227109996D01*
X266576027Y-227044817D01*
X266922744Y-227044817D01*
X266934170Y-227121064D01*
X266962209Y-227171303D01*
X266985093Y-227185443D01*
X267044681Y-227201616D01*
X267114346Y-227206116D01*
X267177307Y-227198485D01*
X267216779Y-227178264D01*
X267233943Y-227150872D01*
X267263060Y-227094606D01*
X267295572Y-227024806D01*
X267321915Y-226956030D01*
X267343041Y-226839065D01*
X267326168Y-226738971D01*
X267271209Y-226654391D01*
X267259312Y-226642626D01*
X267213353Y-226606889D01*
X267177693Y-226592500D01*
X267165610Y-226594642D01*
X267120304Y-226622509D01*
X267066601Y-226675375D01*
X267013029Y-226744012D01*
X266968116Y-226819199D01*
X266948866Y-226865653D01*
X266927715Y-226955401D01*
X266922744Y-227044817D01*
X266576027Y-227044817D01*
X266540788Y-227004834D01*
X266442988Y-226892040D01*
X266344813Y-226777231D01*
X266251005Y-226666024D01*
X266166303Y-226564037D01*
X266095448Y-226476888D01*
X266043181Y-226410194D01*
X266014242Y-226369572D01*
X265995693Y-226332437D01*
X265993075Y-226310446D01*
X266002815Y-226303728D01*
X266044433Y-226277501D01*
X266050421Y-226273817D01*
X266586745Y-226273817D01*
X266595014Y-226338961D01*
X266628627Y-226421215D01*
X266633916Y-226431407D01*
X266654744Y-226476661D01*
X266661738Y-226514672D01*
X266655503Y-226561385D01*
X266636643Y-226632744D01*
X266621824Y-226693934D01*
X266612197Y-226756170D01*
X266613352Y-226792794D01*
X266640329Y-226818947D01*
X266690205Y-226824686D01*
X266748513Y-226808514D01*
X266801810Y-226771918D01*
X266836079Y-226724688D01*
X266871350Y-226639602D01*
X266894385Y-226539814D01*
X266903324Y-226438371D01*
X266896311Y-226348321D01*
X266871485Y-226282711D01*
X266864289Y-226274499D01*
X266815465Y-226245984D01*
X266746367Y-226225554D01*
X266674428Y-226217178D01*
X266617082Y-226224821D01*
X266604220Y-226232580D01*
X266586745Y-226273817D01*
X266050421Y-226273817D01*
X266113712Y-226234880D01*
X266205740Y-226178811D01*
X266253827Y-226149674D01*
X267034224Y-226149674D01*
X267041456Y-226223134D01*
X267056137Y-226274813D01*
X267072989Y-226302042D01*
X267113429Y-226333614D01*
X267153347Y-226326988D01*
X267180982Y-226292346D01*
X267428552Y-226292346D01*
X267443392Y-226438371D01*
X267449376Y-226497250D01*
X267461537Y-226578983D01*
X267474909Y-226729676D01*
X267477059Y-226839065D01*
X267478194Y-226896785D01*
X267471445Y-227088553D01*
X267454715Y-227313229D01*
X267443989Y-227447075D01*
X267437233Y-227584321D01*
X267438530Y-227691663D01*
X267448335Y-227775697D01*
X267467105Y-227843021D01*
X267495296Y-227900231D01*
X267522892Y-227936585D01*
X267574124Y-227964963D01*
X267632422Y-227952725D01*
X267698484Y-227899635D01*
X267773010Y-227805452D01*
X267840090Y-227707955D01*
X267826290Y-227356602D01*
X267824984Y-227325011D01*
X267817009Y-227166649D01*
X267806447Y-226994237D01*
X267794520Y-226826565D01*
X267782449Y-226682422D01*
X267770125Y-226557852D01*
X267755930Y-226449777D01*
X267738084Y-226367355D01*
X267713139Y-226301805D01*
X267677652Y-226244342D01*
X267628177Y-226186183D01*
X267561268Y-226118544D01*
X267455710Y-226015005D01*
X267443231Y-226086794D01*
X267440094Y-226105945D01*
X267434952Y-226188995D01*
X267428552Y-226292346D01*
X267180982Y-226292346D01*
X267187196Y-226284556D01*
X267209433Y-226208708D01*
X267211114Y-226188995D01*
X267200109Y-226120996D01*
X267169796Y-226056422D01*
X267127715Y-226008197D01*
X267081407Y-225989250D01*
X267069394Y-225990163D01*
X267050062Y-226002759D01*
X267039734Y-226037977D01*
X267034439Y-226105667D01*
X267034224Y-226149674D01*
X266253827Y-226149674D01*
X266315602Y-226112243D01*
X266438386Y-226038123D01*
X266569179Y-225959401D01*
X266703067Y-225879024D01*
X266835137Y-225799941D01*
X266960476Y-225725098D01*
X267074171Y-225657445D01*
X267171309Y-225599930D01*
X267246975Y-225555501D01*
X267296258Y-225527105D01*
X267314244Y-225517692D01*
X267321708Y-225530422D01*
X267345146Y-225571285D01*
X267378257Y-225629417D01*
X267390251Y-225650000D01*
X267464856Y-225764595D01*
X267563205Y-225899319D01*
X267679607Y-226046636D01*
X267808370Y-226199008D01*
X267954544Y-226366432D01*
X267967880Y-226611758D01*
X267972463Y-226680385D01*
X267983312Y-226806751D01*
X267997934Y-226952967D01*
X268014997Y-227105972D01*
X268033170Y-227252703D01*
X268085124Y-227648323D01*
X268059318Y-227707955D01*
X267945128Y-227971822D01*
X267901656Y-228072804D01*
X267861813Y-228168795D01*
X267834305Y-228243026D01*
X267816532Y-228304847D01*
X267805893Y-228363608D01*
X267799787Y-228428661D01*
X267795613Y-228509357D01*
X267800490Y-228742207D01*
X267841378Y-228989508D01*
X267907128Y-229198068D01*
X267920776Y-229241359D01*
X267950331Y-229314586D01*
G37*
G36*
X261822334Y-224020750D02*
G01*
X261811750Y-224031334D01*
X261801167Y-224020750D01*
X261811750Y-224010167D01*
X261822334Y-224020750D01*
G37*
G36*
X268997834Y-223639750D02*
G01*
X268987250Y-223650334D01*
X268976667Y-223639750D01*
X268987250Y-223629167D01*
X268997834Y-223639750D01*
G37*
G36*
X262364105Y-223096730D02*
G01*
X262357571Y-223106133D01*
X262339668Y-223121167D01*
X262336709Y-223120961D01*
X262332048Y-223108708D01*
X262354771Y-223087396D01*
X262366600Y-223082245D01*
X262364105Y-223096730D01*
G37*
G36*
X258266334Y-230074417D02*
G01*
X258255750Y-230085000D01*
X258245167Y-230074417D01*
X258255750Y-230063834D01*
X258266334Y-230074417D01*
G37*
G36*
X261970500Y-223766750D02*
G01*
X261959917Y-223777334D01*
X261949334Y-223766750D01*
X261959917Y-223756167D01*
X261970500Y-223766750D01*
G37*
G36*
X262266834Y-223258750D02*
G01*
X262256250Y-223269334D01*
X262245667Y-223258750D01*
X262256250Y-223248167D01*
X262266834Y-223258750D01*
G37*
G36*
X258389179Y-230334241D02*
G01*
X258517327Y-230336334D01*
X258654884Y-230340137D01*
X258795500Y-230345639D01*
X258807764Y-230346326D01*
X258815806Y-230348413D01*
X258786706Y-230350569D01*
X258724314Y-230352650D01*
X258632476Y-230354515D01*
X258515042Y-230356021D01*
X258493273Y-230356216D01*
X258367613Y-230356458D01*
X258258776Y-230355208D01*
X258173139Y-230352644D01*
X258117076Y-230348946D01*
X258096963Y-230344292D01*
X258097643Y-230343225D01*
X258124671Y-230338351D01*
X258186502Y-230335238D01*
X258276788Y-230333872D01*
X258389179Y-230334241D01*
G37*
G36*
X262161000Y-223449250D02*
G01*
X262150417Y-223459834D01*
X262139834Y-223449250D01*
X262150417Y-223438667D01*
X262161000Y-223449250D01*
G37*
G36*
X262034000Y-223660917D02*
G01*
X262023417Y-223671500D01*
X262012834Y-223660917D01*
X262023417Y-223650334D01*
X262034000Y-223660917D01*
G37*
G36*
X261541049Y-224478604D02*
G01*
X261574423Y-224489668D01*
X261636597Y-224514374D01*
X261720472Y-224549833D01*
X261818946Y-224593153D01*
X262092604Y-224715648D01*
X262137286Y-224823282D01*
X262159307Y-224870256D01*
X262230069Y-224988070D01*
X262330951Y-225127035D01*
X262459411Y-225284242D01*
X262612905Y-225456782D01*
X262788891Y-225641743D01*
X262984826Y-225836216D01*
X263198167Y-226037292D01*
X263281051Y-226112250D01*
X263374019Y-226193395D01*
X263456260Y-226262133D01*
X263521098Y-226312903D01*
X263561856Y-226340145D01*
X263578675Y-226349100D01*
X263626688Y-226378421D01*
X263651902Y-226399817D01*
X263651113Y-226402100D01*
X263626180Y-226422988D01*
X263569828Y-226462407D01*
X263485851Y-226517917D01*
X263378041Y-226587075D01*
X263250191Y-226667439D01*
X263106095Y-226756566D01*
X262949546Y-226852015D01*
X262930652Y-226863455D01*
X262779771Y-226954792D01*
X262598929Y-227064239D01*
X262393607Y-227188479D01*
X262169286Y-227324198D01*
X261931445Y-227468079D01*
X261685566Y-227616808D01*
X261437129Y-227767070D01*
X261191613Y-227915548D01*
X260954500Y-228058928D01*
X260881985Y-228102779D01*
X260651034Y-228242507D01*
X260418963Y-228383006D01*
X260190440Y-228521446D01*
X259970136Y-228654992D01*
X259762721Y-228780813D01*
X259572863Y-228896077D01*
X259405233Y-228997951D01*
X259264500Y-229083603D01*
X259155334Y-229150201D01*
X259126848Y-229167599D01*
X258995228Y-229247636D01*
X258876134Y-229319496D01*
X258774272Y-229380380D01*
X258694349Y-229427486D01*
X258641073Y-229458016D01*
X258619149Y-229469169D01*
X258616391Y-229468059D01*
X258620918Y-229445389D01*
X258643340Y-229402375D01*
X258650682Y-229390171D01*
X258681827Y-229337781D01*
X258731064Y-229254524D01*
X258796079Y-229144333D01*
X258874557Y-229011136D01*
X258964184Y-228858866D01*
X259062646Y-228691453D01*
X259167629Y-228512829D01*
X259276819Y-228326923D01*
X259387901Y-228137667D01*
X259417683Y-228086908D01*
X259470807Y-227996371D01*
X259540907Y-227876902D01*
X259625569Y-227732617D01*
X259722377Y-227567632D01*
X259828918Y-227386061D01*
X259942775Y-227192022D01*
X260061535Y-226989630D01*
X260182781Y-226783000D01*
X260248302Y-226671335D01*
X260380461Y-226446083D01*
X260515023Y-226216715D01*
X260648582Y-225989035D01*
X260777736Y-225768847D01*
X260899080Y-225561953D01*
X261009209Y-225374159D01*
X261104720Y-225211268D01*
X261182208Y-225079084D01*
X261234031Y-224990726D01*
X261314329Y-224854078D01*
X261386181Y-224732114D01*
X261447004Y-224629207D01*
X261494210Y-224549728D01*
X261525214Y-224498047D01*
X261537432Y-224478537D01*
X261541049Y-224478604D01*
G37*
G36*
X262457334Y-222941250D02*
G01*
X262446750Y-222951834D01*
X262436167Y-222941250D01*
X262446750Y-222930667D01*
X262457334Y-222941250D01*
G37*
G36*
X258308667Y-230010917D02*
G01*
X258298084Y-230021500D01*
X258287500Y-230010917D01*
X258298084Y-230000334D01*
X258308667Y-230010917D01*
G37*
G36*
X261758834Y-224126584D02*
G01*
X261748250Y-224137167D01*
X261737667Y-224126584D01*
X261748250Y-224116000D01*
X261758834Y-224126584D01*
G37*
G36*
X262817167Y-222327417D02*
G01*
X262806584Y-222338000D01*
X262796000Y-222327417D01*
X262806584Y-222316834D01*
X262817167Y-222327417D01*
G37*
G36*
X258245167Y-230116750D02*
G01*
X258234584Y-230127334D01*
X258224000Y-230116750D01*
X258234584Y-230106167D01*
X258245167Y-230116750D01*
G37*
G36*
X262753667Y-222433250D02*
G01*
X262743084Y-222443834D01*
X262732500Y-222433250D01*
X262743084Y-222422667D01*
X262753667Y-222433250D01*
G37*
G36*
X258605000Y-229502917D02*
G01*
X258594417Y-229513500D01*
X258583834Y-229502917D01*
X258594417Y-229492334D01*
X258605000Y-229502917D01*
G37*
G36*
X262723938Y-222482896D02*
G01*
X262721126Y-222487205D01*
X262700212Y-222506699D01*
X262690167Y-222497999D01*
X262692059Y-222493238D01*
X262714604Y-222473562D01*
X262726433Y-222468412D01*
X262723938Y-222482896D01*
G37*
G36*
X262309167Y-223195250D02*
G01*
X262298584Y-223205834D01*
X262288000Y-223195250D01*
X262298584Y-223184667D01*
X262309167Y-223195250D01*
G37*
G36*
X261885834Y-223914917D02*
G01*
X261875250Y-223925500D01*
X261864667Y-223914917D01*
X261875250Y-223904334D01*
X261885834Y-223914917D01*
G37*
G36*
X269336500Y-224190084D02*
G01*
X269325917Y-224200667D01*
X269315334Y-224190084D01*
X269325917Y-224179500D01*
X269336500Y-224190084D01*
G37*
G36*
X269040167Y-223703250D02*
G01*
X269029584Y-223713834D01*
X269019000Y-223703250D01*
X269029584Y-223692667D01*
X269040167Y-223703250D01*
G37*
G36*
X269221307Y-224011119D02*
G01*
X269241250Y-224031334D01*
X269245193Y-224038828D01*
X269243749Y-224052500D01*
X269240027Y-224051548D01*
X269220084Y-224031334D01*
X269216141Y-224023839D01*
X269217585Y-224010167D01*
X269221307Y-224011119D01*
G37*
G36*
X258329834Y-229968584D02*
G01*
X258319250Y-229979167D01*
X258308667Y-229968584D01*
X258319250Y-229958000D01*
X258329834Y-229968584D01*
G37*
G36*
X262393834Y-223047084D02*
G01*
X262383250Y-223057667D01*
X262372667Y-223047084D01*
X262383250Y-223036500D01*
X262393834Y-223047084D01*
G37*
G36*
X262787438Y-222377063D02*
G01*
X262784626Y-222381372D01*
X262763712Y-222400866D01*
X262753667Y-222392166D01*
X262755559Y-222387405D01*
X262778104Y-222367729D01*
X262789933Y-222362579D01*
X262787438Y-222377063D01*
G37*
G36*
X258372167Y-229905084D02*
G01*
X258361584Y-229915667D01*
X258351000Y-229905084D01*
X258361584Y-229894500D01*
X258372167Y-229905084D01*
G37*
G36*
X261792605Y-224070396D02*
G01*
X261789793Y-224074705D01*
X261768879Y-224094199D01*
X261758834Y-224085499D01*
X261760726Y-224080738D01*
X261783271Y-224061062D01*
X261795100Y-224055912D01*
X261792605Y-224070396D01*
G37*
G36*
X258541500Y-229608750D02*
G01*
X258530917Y-229619334D01*
X258520334Y-229608750D01*
X258530917Y-229598167D01*
X258541500Y-229608750D01*
G37*
G36*
X262415000Y-223004750D02*
G01*
X262404417Y-223015334D01*
X262393834Y-223004750D01*
X262404417Y-222994167D01*
X262415000Y-223004750D01*
G37*
G36*
X262575772Y-222736896D02*
G01*
X262569238Y-222746299D01*
X262551335Y-222761334D01*
X262548376Y-222761127D01*
X262543714Y-222748875D01*
X262566438Y-222727562D01*
X262578267Y-222722412D01*
X262575772Y-222736896D01*
G37*
G36*
X258456834Y-229756917D02*
G01*
X258446250Y-229767500D01*
X258435667Y-229756917D01*
X258446250Y-229746334D01*
X258456834Y-229756917D01*
G37*
G36*
X261580938Y-224430230D02*
G01*
X261578126Y-224434539D01*
X261557212Y-224454032D01*
X261547167Y-224445333D01*
X261549059Y-224440572D01*
X261571604Y-224420896D01*
X261583433Y-224415745D01*
X261580938Y-224430230D01*
G37*
G36*
X261674167Y-224274750D02*
G01*
X261663584Y-224285334D01*
X261653000Y-224274750D01*
X261663584Y-224264167D01*
X261674167Y-224274750D01*
G37*
G36*
X269167167Y-223914917D02*
G01*
X269156584Y-223925500D01*
X269146000Y-223914917D01*
X269156584Y-223904334D01*
X269167167Y-223914917D01*
G37*
G36*
X261610667Y-224380584D02*
G01*
X261600084Y-224391167D01*
X261589500Y-224380584D01*
X261600084Y-224370000D01*
X261610667Y-224380584D01*
G37*
G36*
X258181667Y-230222584D02*
G01*
X258171084Y-230233167D01*
X258160500Y-230222584D01*
X258171084Y-230212000D01*
X258181667Y-230222584D01*
G37*
G36*
X262512272Y-222842730D02*
G01*
X262509460Y-222847039D01*
X262488546Y-222866532D01*
X262478500Y-222857833D01*
X262480393Y-222853072D01*
X262502938Y-222833396D01*
X262514767Y-222828245D01*
X262512272Y-222842730D01*
G37*
G36*
X258520334Y-229651084D02*
G01*
X258509750Y-229661667D01*
X258499167Y-229651084D01*
X258509750Y-229640500D01*
X258520334Y-229651084D01*
G37*
G36*
X262478500Y-222898917D02*
G01*
X262467917Y-222909500D01*
X262457334Y-222898917D01*
X262467917Y-222888334D01*
X262478500Y-222898917D01*
G37*
G36*
X261949334Y-223809084D02*
G01*
X261938750Y-223819667D01*
X261928167Y-223809084D01*
X261938750Y-223798500D01*
X261949334Y-223809084D01*
G37*
G36*
X261737667Y-224168917D02*
G01*
X261727084Y-224179500D01*
X261716500Y-224168917D01*
X261727084Y-224158334D01*
X261737667Y-224168917D01*
G37*
G36*
X262935605Y-222123063D02*
G01*
X262929071Y-222132466D01*
X262911168Y-222147500D01*
X262908209Y-222147294D01*
X262903548Y-222135042D01*
X262926271Y-222113729D01*
X262938100Y-222108579D01*
X262935605Y-222123063D01*
G37*
G36*
X261907000Y-223872584D02*
G01*
X261896417Y-223883167D01*
X261885834Y-223872584D01*
X261896417Y-223862000D01*
X261907000Y-223872584D01*
G37*
G36*
X268955500Y-223576250D02*
G01*
X268944917Y-223586834D01*
X268934334Y-223576250D01*
X268944917Y-223565667D01*
X268955500Y-223576250D01*
G37*
G36*
X262067772Y-223604730D02*
G01*
X262064960Y-223609039D01*
X262044046Y-223628532D01*
X262034000Y-223619833D01*
X262035893Y-223615072D01*
X262058438Y-223595396D01*
X262070267Y-223590245D01*
X262067772Y-223604730D01*
G37*
G36*
X258393334Y-229862750D02*
G01*
X258382750Y-229873334D01*
X258372167Y-229862750D01*
X258382750Y-229852167D01*
X258393334Y-229862750D01*
G37*
G36*
X262690167Y-222539084D02*
G01*
X262679584Y-222549667D01*
X262669000Y-222539084D01*
X262679584Y-222528500D01*
X262690167Y-222539084D01*
G37*
G36*
X262004272Y-223710563D02*
G01*
X261997738Y-223719966D01*
X261979835Y-223735000D01*
X261976876Y-223734794D01*
X261972214Y-223722542D01*
X261994938Y-223701229D01*
X262006767Y-223696079D01*
X262004272Y-223710563D01*
G37*
G36*
X262542000Y-222793084D02*
G01*
X262531417Y-222803667D01*
X262520834Y-222793084D01*
X262531417Y-222782500D01*
X262542000Y-222793084D01*
G37*
G36*
X262203334Y-223364584D02*
G01*
X262192750Y-223375167D01*
X262182167Y-223364584D01*
X262192750Y-223354000D01*
X262203334Y-223364584D01*
G37*
G36*
X268892000Y-223470417D02*
G01*
X268881417Y-223481000D01*
X268870834Y-223470417D01*
X268881417Y-223459834D01*
X268892000Y-223470417D01*
G37*
G36*
X258478000Y-229714584D02*
G01*
X258467417Y-229725167D01*
X258456834Y-229714584D01*
X258467417Y-229704000D01*
X258478000Y-229714584D01*
G37*
G36*
X262605500Y-222687250D02*
G01*
X262594917Y-222697834D01*
X262584334Y-222687250D01*
X262594917Y-222676667D01*
X262605500Y-222687250D01*
G37*
G36*
X262245667Y-223301084D02*
G01*
X262235084Y-223311667D01*
X262224500Y-223301084D01*
X262235084Y-223290500D01*
X262245667Y-223301084D01*
G37*
G36*
X258575272Y-229552563D02*
G01*
X258572460Y-229556872D01*
X258551546Y-229576366D01*
X258541500Y-229567666D01*
X258543393Y-229562905D01*
X258565938Y-229543229D01*
X258577767Y-229538079D01*
X258575272Y-229552563D01*
G37*
G36*
X262626667Y-222644917D02*
G01*
X262616084Y-222655500D01*
X262605500Y-222644917D01*
X262616084Y-222634334D01*
X262626667Y-222644917D01*
G37*
G36*
X269061334Y-223745584D02*
G01*
X269050750Y-223756167D01*
X269040167Y-223745584D01*
X269050750Y-223735000D01*
X269061334Y-223745584D01*
G37*
G36*
X262097500Y-223555084D02*
G01*
X262086917Y-223565667D01*
X262076334Y-223555084D01*
X262086917Y-223544500D01*
X262097500Y-223555084D01*
G37*
G36*
X268903807Y-223503119D02*
G01*
X268923750Y-223523334D01*
X268927693Y-223530828D01*
X268926249Y-223544500D01*
X268922527Y-223543548D01*
X268902584Y-223523334D01*
X268898641Y-223515839D01*
X268900085Y-223502167D01*
X268903807Y-223503119D01*
G37*
G36*
X269273000Y-224084250D02*
G01*
X269262417Y-224094834D01*
X269251834Y-224084250D01*
X269262417Y-224073667D01*
X269273000Y-224084250D01*
G37*
G36*
X258427105Y-229806563D02*
G01*
X258424293Y-229810872D01*
X258403379Y-229830366D01*
X258393334Y-229821666D01*
X258395226Y-229816905D01*
X258417771Y-229797229D01*
X258429600Y-229792079D01*
X258427105Y-229806563D01*
G37*
G36*
X262182167Y-223406917D02*
G01*
X262171584Y-223417500D01*
X262161000Y-223406917D01*
X262171584Y-223396334D01*
X262182167Y-223406917D01*
G37*
G36*
X261695334Y-224232417D02*
G01*
X261684750Y-224243000D01*
X261674167Y-224232417D01*
X261684750Y-224221834D01*
X261695334Y-224232417D01*
G37*
G36*
X262901834Y-222179250D02*
G01*
X262891250Y-222189834D01*
X262880667Y-222179250D01*
X262891250Y-222168667D01*
X262901834Y-222179250D01*
G37*
G36*
X269103667Y-223809084D02*
G01*
X269093084Y-223819667D01*
X269082500Y-223809084D01*
X269093084Y-223798500D01*
X269103667Y-223809084D01*
G37*
G36*
X268849667Y-223406917D02*
G01*
X268839084Y-223417500D01*
X268828500Y-223406917D01*
X268839084Y-223396334D01*
X268849667Y-223406917D01*
G37*
G36*
X258215438Y-230166396D02*
G01*
X258208904Y-230175799D01*
X258191001Y-230190834D01*
X258188042Y-230190627D01*
X258183381Y-230178375D01*
X258206104Y-230157062D01*
X258217933Y-230151912D01*
X258215438Y-230166396D01*
G37*
G36*
X261856105Y-223964563D02*
G01*
X261853293Y-223968872D01*
X261832379Y-223988366D01*
X261822334Y-223979666D01*
X261824226Y-223974905D01*
X261846771Y-223955229D01*
X261858600Y-223950079D01*
X261856105Y-223964563D01*
G37*
G36*
X262330334Y-223152917D02*
G01*
X262319750Y-223163500D01*
X262309167Y-223152917D01*
X262319750Y-223142334D01*
X262330334Y-223152917D01*
G37*
G36*
X269284807Y-224116953D02*
G01*
X269304750Y-224137167D01*
X269308693Y-224144661D01*
X269307249Y-224158334D01*
X269303527Y-224157381D01*
X269283584Y-224137167D01*
X269279641Y-224129673D01*
X269281085Y-224116000D01*
X269284807Y-224116953D01*
G37*
G36*
X258160500Y-230264917D02*
G01*
X258149917Y-230275500D01*
X258139334Y-230264917D01*
X258149917Y-230254334D01*
X258160500Y-230264917D01*
G37*
G36*
X262880667Y-222221584D02*
G01*
X262870084Y-222232167D01*
X262859500Y-222221584D01*
X262870084Y-222211000D01*
X262880667Y-222221584D01*
G37*
X385318000Y-199918000D02*
X383368000Y-199918000D01*
X385318000Y-210038000D02*
X383368000Y-210038000D01*
X385318000Y-210038000D02*
X387268000Y-210038000D01*
X385318000Y-199918000D02*
X388768000Y-199918000D01*
X370078000Y-199918000D02*
X368128000Y-199918000D01*
X370078000Y-210038000D02*
X372028000Y-210038000D01*
X370078000Y-199918000D02*
X372028000Y-199918000D01*
X370078000Y-210038000D02*
X366628000Y-210038000D01*
X385318000Y-189250000D02*
X388768000Y-189250000D01*
X385318000Y-189250000D02*
X383368000Y-189250000D01*
X385318000Y-199370000D02*
X387268000Y-199370000D01*
X385318000Y-199370000D02*
X383368000Y-199370000D01*
%LPC*%
D13*
X380746000Y-201038000D03*
X380746000Y-199388000D03*
D14*
X360522000Y-208964000D03*
X358872000Y-208964000D03*
X360522000Y-207430216D03*
X358872000Y-207430216D03*
X360522000Y-205896439D03*
X358872000Y-205896439D03*
X360522000Y-204362662D03*
X358872000Y-204362662D03*
X360522000Y-202828885D03*
X358872000Y-202828885D03*
X360522000Y-201295108D03*
X358872000Y-201295108D03*
X360522000Y-199761331D03*
X358872000Y-199761331D03*
X360522000Y-198227554D03*
X358872000Y-198227554D03*
X360522000Y-196693777D03*
X358872000Y-196693777D03*
X360522000Y-195160000D03*
X358872000Y-195160000D03*
X393034000Y-194398000D03*
X391384000Y-194398000D03*
X393034000Y-189826000D03*
X391384000Y-189826000D03*
X393034000Y-191350000D03*
X391384000Y-191350000D03*
X393034000Y-192874000D03*
X391384000Y-192874000D03*
D15*
X391384000Y-209638000D03*
X393034000Y-209638000D03*
X391384000Y-208114000D03*
X393034000Y-208114000D03*
X391384000Y-206590000D03*
X393034000Y-206590000D03*
X391384000Y-205066000D03*
X393034000Y-205066000D03*
X391384000Y-203542000D03*
X393034000Y-203542000D03*
X391384000Y-202018000D03*
X393034000Y-202018000D03*
X391384000Y-200494000D03*
X393034000Y-200494000D03*
X391384000Y-198970000D03*
X393034000Y-198970000D03*
D16*
X241884000Y-194310000D03*
D17*
X244424000Y-194310000D03*
X246964000Y-194310000D03*
X249504000Y-194310000D03*
X252044000Y-194310000D03*
X254584000Y-194310000D03*
X257124000Y-194310000D03*
X259664000Y-194310000D03*
X262204000Y-194310000D03*
X264744000Y-194310000D03*
X264744000Y-201930000D03*
X241884000Y-201930000D03*
D16*
X301684000Y-194310000D03*
D17*
X304224000Y-194310000D03*
X306764000Y-194310000D03*
X309304000Y-194310000D03*
X311844000Y-194310000D03*
X314384000Y-194310000D03*
X316924000Y-194310000D03*
X319464000Y-194310000D03*
X322004000Y-194310000D03*
X324544000Y-194310000D03*
X324544000Y-201930000D03*
X301684000Y-201930000D03*
X396240000Y-190905000D03*
X398780000Y-190905000D03*
X401320000Y-190905000D03*
X403860000Y-190905000D03*
X406400000Y-190905000D03*
X408940000Y-190905000D03*
X408940000Y-206145000D03*
X406400000Y-206145000D03*
X403860000Y-206145000D03*
X401320000Y-206145000D03*
X398780000Y-206145000D03*
D16*
X396240000Y-206145000D03*
X122284000Y-194310000D03*
D17*
X124824000Y-194310000D03*
X127364000Y-194310000D03*
X129904000Y-194310000D03*
X132444000Y-194310000D03*
X134984000Y-194310000D03*
X137524000Y-194310000D03*
X140064000Y-194310000D03*
X142604000Y-194310000D03*
X145144000Y-194310000D03*
X145144000Y-201930000D03*
X122284000Y-201930000D03*
D16*
X152184000Y-194310000D03*
D17*
X154724000Y-194310000D03*
X157264000Y-194310000D03*
X159804000Y-194310000D03*
X162344000Y-194310000D03*
X164884000Y-194310000D03*
X167424000Y-194310000D03*
X169964000Y-194310000D03*
X172504000Y-194310000D03*
X175044000Y-194310000D03*
X175044000Y-201930000D03*
X152184000Y-201930000D03*
D18*
X360732000Y-213794500D03*
X358192000Y-213794500D03*
X355652000Y-213794500D03*
X353112000Y-213794500D03*
X350572000Y-213794500D03*
X348032000Y-213794500D03*
X345492000Y-213794500D03*
X342952000Y-213794500D03*
X340412000Y-213794500D03*
X337872000Y-213794500D03*
X335332000Y-213794500D03*
X332792000Y-213794500D03*
X330252000Y-213794500D03*
X327712000Y-213794500D03*
X325172000Y-213794500D03*
X322632000Y-213794500D03*
X320092000Y-213794500D03*
X317552000Y-213794500D03*
X315012000Y-213794500D03*
X360732000Y-239194500D03*
X358192000Y-239194500D03*
X355652000Y-239194500D03*
X353112000Y-239194500D03*
X350572000Y-239194500D03*
X348032000Y-239194500D03*
X345492000Y-239194500D03*
X342952000Y-239194500D03*
X340412000Y-239194500D03*
X337872000Y-239194500D03*
X335332000Y-239194500D03*
X332792000Y-239194500D03*
X330252000Y-239194500D03*
X327712000Y-239194500D03*
X325172000Y-239194500D03*
X322632000Y-239194500D03*
X320092000Y-239194500D03*
X317552000Y-239194500D03*
D19*
X315012000Y-239194500D03*
D20*
X88199000Y-229158000D03*
D21*
X88199000Y-231698000D03*
X110429000Y-231698000D03*
D20*
X110429000Y-229158000D03*
D16*
X92384000Y-194310000D03*
D17*
X94924000Y-194310000D03*
X97464000Y-194310000D03*
X100004000Y-194310000D03*
X102544000Y-194310000D03*
X105084000Y-194310000D03*
X107624000Y-194310000D03*
X110164000Y-194310000D03*
X112704000Y-194310000D03*
X115244000Y-194310000D03*
X115244000Y-201930000D03*
X92384000Y-201930000D03*
D16*
X211984000Y-194310000D03*
D17*
X214524000Y-194310000D03*
X217064000Y-194310000D03*
X219604000Y-194310000D03*
X222144000Y-194310000D03*
X224684000Y-194310000D03*
X227224000Y-194310000D03*
X229764000Y-194310000D03*
X232304000Y-194310000D03*
X234844000Y-194310000D03*
X234844000Y-201930000D03*
X211984000Y-201930000D03*
D22*
X75946000Y-221742000D03*
D23*
X75946000Y-216662000D03*
D16*
X271784000Y-194310000D03*
D17*
X274324000Y-194310000D03*
X276864000Y-194310000D03*
X279404000Y-194310000D03*
X281944000Y-194310000D03*
X284484000Y-194310000D03*
X287024000Y-194310000D03*
X289564000Y-194310000D03*
X292104000Y-194310000D03*
X294644000Y-194310000D03*
X294644000Y-201930000D03*
X271784000Y-201930000D03*
D16*
X62484000Y-194310000D03*
D17*
X65024000Y-194310000D03*
X67564000Y-194310000D03*
X70104000Y-194310000D03*
X72644000Y-194310000D03*
X75184000Y-194310000D03*
X77724000Y-194310000D03*
X80264000Y-194310000D03*
X82804000Y-194310000D03*
X85344000Y-194310000D03*
X85344000Y-201930000D03*
X62484000Y-201930000D03*
D20*
X88199000Y-217449000D03*
D21*
X88199000Y-219989000D03*
X110429000Y-219989000D03*
D20*
X110429000Y-217449000D03*
D24*
X394324000Y-224322000D03*
D25*
X394324000Y-229322000D03*
X394324000Y-226822000D03*
D26*
X401824000Y-232422000D03*
X401824000Y-221222000D03*
D25*
X408824000Y-229322000D03*
X408824000Y-224322000D03*
D16*
X182084000Y-194310000D03*
D17*
X184624000Y-194310000D03*
X187164000Y-194310000D03*
X189704000Y-194310000D03*
X192244000Y-194310000D03*
X194784000Y-194310000D03*
X197324000Y-194310000D03*
X199864000Y-194310000D03*
X202404000Y-194310000D03*
X204944000Y-194310000D03*
X204944000Y-201930000D03*
X182084000Y-201930000D03*
D22*
X75846000Y-232918000D03*
D23*
X75846000Y-227838000D03*
D16*
X331584000Y-194310000D03*
D17*
X334124000Y-194310000D03*
X336664000Y-194310000D03*
X339204000Y-194310000D03*
X341744000Y-194310000D03*
X344284000Y-194310000D03*
X346824000Y-194310000D03*
X349364000Y-194310000D03*
X351904000Y-194310000D03*
X354444000Y-194310000D03*
X354444000Y-201930000D03*
X331584000Y-201930000D03*
D27*
X382843000Y-200533000D03*
X382843000Y-201803000D03*
X382843000Y-203073000D03*
X382843000Y-204343000D03*
X382843000Y-205613000D03*
X382843000Y-206883000D03*
X382843000Y-208153000D03*
X382843000Y-209423000D03*
X387793000Y-209423000D03*
X387793000Y-208153000D03*
X387793000Y-206883000D03*
X387793000Y-205613000D03*
X387793000Y-204343000D03*
X387793000Y-203073000D03*
X387793000Y-201803000D03*
X387793000Y-200533000D03*
D28*
X372553000Y-209423000D03*
X372553000Y-208153000D03*
X372553000Y-206883000D03*
X372553000Y-205613000D03*
X372553000Y-204343000D03*
X372553000Y-203073000D03*
X372553000Y-201803000D03*
X372553000Y-200533000D03*
X367603000Y-200533000D03*
X367603000Y-201803000D03*
X367603000Y-203073000D03*
X367603000Y-204343000D03*
X367603000Y-205613000D03*
X367603000Y-206883000D03*
X367603000Y-208153000D03*
X367603000Y-209423000D03*
D27*
X382843000Y-189865000D03*
X382843000Y-191135000D03*
X382843000Y-192405000D03*
X382843000Y-193675000D03*
X382843000Y-194945000D03*
X382843000Y-196215000D03*
X382843000Y-197485000D03*
X382843000Y-198755000D03*
X387793000Y-198755000D03*
X387793000Y-197485000D03*
X387793000Y-196215000D03*
X387793000Y-194945000D03*
X387793000Y-193675000D03*
X387793000Y-192405000D03*
X387793000Y-191135000D03*
X387793000Y-189865000D03*
M02*
