G04 #@! TF.GenerationSoftware,KiCad,Pcbnew,(6.0.6)*
G04 #@! TF.CreationDate,2022-08-14T15:31:57+08:00*
G04 #@! TF.ProjectId,led_scroll,6c65645f-7363-4726-9f6c-6c2e6b696361,rev?*
G04 #@! TF.SameCoordinates,Original*
G04 #@! TF.FileFunction,Soldermask,Bot*
G04 #@! TF.FilePolarity,Negative*
%FSLAX46Y46*%
G04 Gerber Fmt 4.6, Leading zero omitted, Abs format (unit mm)*
G04 Created by KiCad (PCBNEW (6.0.6)) date 2022-08-14 15:31:57*
%MOMM*%
%LPD*%
G01*
G04 APERTURE LIST*
G04 Aperture macros list*
%AMRoundRect*
0 Rectangle with rounded corners*
0 $1 Rounding radius*
0 $2 $3 $4 $5 $6 $7 $8 $9 X,Y pos of 4 corners*
0 Add a 4 corners polygon primitive as box body*
4,1,4,$2,$3,$4,$5,$6,$7,$8,$9,$2,$3,0*
0 Add four circle primitives for the rounded corners*
1,1,$1+$1,$2,$3*
1,1,$1+$1,$4,$5*
1,1,$1+$1,$6,$7*
1,1,$1+$1,$8,$9*
0 Add four rect primitives between the rounded corners*
20,1,$1+$1,$2,$3,$4,$5,0*
20,1,$1+$1,$4,$5,$6,$7,0*
20,1,$1+$1,$6,$7,$8,$9,0*
20,1,$1+$1,$8,$9,$2,$3,0*%
G04 Aperture macros list end*
%ADD10RoundRect,0.200000X-0.275000X0.200000X-0.275000X-0.200000X0.275000X-0.200000X0.275000X0.200000X0*%
%ADD11RoundRect,0.200000X0.200000X0.275000X-0.200000X0.275000X-0.200000X-0.275000X0.200000X-0.275000X0*%
%ADD12RoundRect,0.200000X-0.200000X-0.275000X0.200000X-0.275000X0.200000X0.275000X-0.200000X0.275000X0*%
%ADD13R,1.500000X1.500000*%
%ADD14C,1.500000*%
%ADD15C,1.560000*%
%ADD16R,1.560000X1.560000*%
%ADD17O,1.700000X1.700000*%
%ADD18R,1.700000X1.700000*%
%ADD19R,2.800000X2.800000*%
%ADD20C,2.800000*%
%ADD21R,2.000000X2.000000*%
%ADD22C,2.000000*%
%ADD23R,3.200000X2.000000*%
%ADD24RoundRect,0.150000X0.825000X0.150000X-0.825000X0.150000X-0.825000X-0.150000X0.825000X-0.150000X0*%
%ADD25RoundRect,0.150000X-0.825000X-0.150000X0.825000X-0.150000X0.825000X0.150000X-0.825000X0.150000X0*%
G04 APERTURE END LIST*
D10*
X380746000Y-201038000D03*
X380746000Y-199388000D03*
D11*
X360522000Y-208964000D03*
X358872000Y-208964000D03*
X360522000Y-207430216D03*
X358872000Y-207430216D03*
X360522000Y-205896439D03*
X358872000Y-205896439D03*
X360522000Y-204362662D03*
X358872000Y-204362662D03*
X360522000Y-202828885D03*
X358872000Y-202828885D03*
X360522000Y-201295108D03*
X358872000Y-201295108D03*
X360522000Y-199761331D03*
X358872000Y-199761331D03*
X360522000Y-198227554D03*
X358872000Y-198227554D03*
X360522000Y-196693777D03*
X358872000Y-196693777D03*
X360522000Y-195160000D03*
X358872000Y-195160000D03*
X393034000Y-194398000D03*
X391384000Y-194398000D03*
X393034000Y-189826000D03*
X391384000Y-189826000D03*
X393034000Y-191350000D03*
X391384000Y-191350000D03*
X393034000Y-192874000D03*
X391384000Y-192874000D03*
D12*
X391384000Y-209638000D03*
X393034000Y-209638000D03*
X391384000Y-208114000D03*
X393034000Y-208114000D03*
X391384000Y-206590000D03*
X393034000Y-206590000D03*
X391384000Y-205066000D03*
X393034000Y-205066000D03*
X391384000Y-203542000D03*
X393034000Y-203542000D03*
X391384000Y-202018000D03*
X393034000Y-202018000D03*
X391384000Y-200494000D03*
X393034000Y-200494000D03*
X391384000Y-198970000D03*
X393034000Y-198970000D03*
D13*
X241884000Y-194310000D03*
D14*
X244424000Y-194310000D03*
X246964000Y-194310000D03*
X249504000Y-194310000D03*
X252044000Y-194310000D03*
X254584000Y-194310000D03*
X257124000Y-194310000D03*
X259664000Y-194310000D03*
X262204000Y-194310000D03*
X264744000Y-194310000D03*
X264744000Y-201930000D03*
X241884000Y-201930000D03*
D13*
X301684000Y-194310000D03*
D14*
X304224000Y-194310000D03*
X306764000Y-194310000D03*
X309304000Y-194310000D03*
X311844000Y-194310000D03*
X314384000Y-194310000D03*
X316924000Y-194310000D03*
X319464000Y-194310000D03*
X322004000Y-194310000D03*
X324544000Y-194310000D03*
X324544000Y-201930000D03*
X301684000Y-201930000D03*
X396240000Y-190905000D03*
X398780000Y-190905000D03*
X401320000Y-190905000D03*
X403860000Y-190905000D03*
X406400000Y-190905000D03*
X408940000Y-190905000D03*
X408940000Y-206145000D03*
X406400000Y-206145000D03*
X403860000Y-206145000D03*
X401320000Y-206145000D03*
X398780000Y-206145000D03*
D13*
X396240000Y-206145000D03*
X122284000Y-194310000D03*
D14*
X124824000Y-194310000D03*
X127364000Y-194310000D03*
X129904000Y-194310000D03*
X132444000Y-194310000D03*
X134984000Y-194310000D03*
X137524000Y-194310000D03*
X140064000Y-194310000D03*
X142604000Y-194310000D03*
X145144000Y-194310000D03*
X145144000Y-201930000D03*
X122284000Y-201930000D03*
D13*
X152184000Y-194310000D03*
D14*
X154724000Y-194310000D03*
X157264000Y-194310000D03*
X159804000Y-194310000D03*
X162344000Y-194310000D03*
X164884000Y-194310000D03*
X167424000Y-194310000D03*
X169964000Y-194310000D03*
X172504000Y-194310000D03*
X175044000Y-194310000D03*
X175044000Y-201930000D03*
X152184000Y-201930000D03*
D15*
X360732000Y-213794500D03*
X358192000Y-213794500D03*
X355652000Y-213794500D03*
X353112000Y-213794500D03*
X350572000Y-213794500D03*
X348032000Y-213794500D03*
X345492000Y-213794500D03*
X342952000Y-213794500D03*
X340412000Y-213794500D03*
X337872000Y-213794500D03*
X335332000Y-213794500D03*
X332792000Y-213794500D03*
X330252000Y-213794500D03*
X327712000Y-213794500D03*
X325172000Y-213794500D03*
X322632000Y-213794500D03*
X320092000Y-213794500D03*
X317552000Y-213794500D03*
X315012000Y-213794500D03*
X360732000Y-239194500D03*
X358192000Y-239194500D03*
X355652000Y-239194500D03*
X353112000Y-239194500D03*
X350572000Y-239194500D03*
X348032000Y-239194500D03*
X345492000Y-239194500D03*
X342952000Y-239194500D03*
X340412000Y-239194500D03*
X337872000Y-239194500D03*
X335332000Y-239194500D03*
X332792000Y-239194500D03*
X330252000Y-239194500D03*
X327712000Y-239194500D03*
X325172000Y-239194500D03*
X322632000Y-239194500D03*
X320092000Y-239194500D03*
X317552000Y-239194500D03*
D16*
X315012000Y-239194500D03*
D17*
X88199000Y-229158000D03*
D18*
X88199000Y-231698000D03*
X110429000Y-231698000D03*
D17*
X110429000Y-229158000D03*
D13*
X92384000Y-194310000D03*
D14*
X94924000Y-194310000D03*
X97464000Y-194310000D03*
X100004000Y-194310000D03*
X102544000Y-194310000D03*
X105084000Y-194310000D03*
X107624000Y-194310000D03*
X110164000Y-194310000D03*
X112704000Y-194310000D03*
X115244000Y-194310000D03*
X115244000Y-201930000D03*
X92384000Y-201930000D03*
D13*
X211984000Y-194310000D03*
D14*
X214524000Y-194310000D03*
X217064000Y-194310000D03*
X219604000Y-194310000D03*
X222144000Y-194310000D03*
X224684000Y-194310000D03*
X227224000Y-194310000D03*
X229764000Y-194310000D03*
X232304000Y-194310000D03*
X234844000Y-194310000D03*
X234844000Y-201930000D03*
X211984000Y-201930000D03*
D19*
X75946000Y-221742000D03*
D20*
X75946000Y-216662000D03*
D13*
X271784000Y-194310000D03*
D14*
X274324000Y-194310000D03*
X276864000Y-194310000D03*
X279404000Y-194310000D03*
X281944000Y-194310000D03*
X284484000Y-194310000D03*
X287024000Y-194310000D03*
X289564000Y-194310000D03*
X292104000Y-194310000D03*
X294644000Y-194310000D03*
X294644000Y-201930000D03*
X271784000Y-201930000D03*
D13*
X62484000Y-194310000D03*
D14*
X65024000Y-194310000D03*
X67564000Y-194310000D03*
X70104000Y-194310000D03*
X72644000Y-194310000D03*
X75184000Y-194310000D03*
X77724000Y-194310000D03*
X80264000Y-194310000D03*
X82804000Y-194310000D03*
X85344000Y-194310000D03*
X85344000Y-201930000D03*
X62484000Y-201930000D03*
D17*
X88199000Y-217449000D03*
D18*
X88199000Y-219989000D03*
X110429000Y-219989000D03*
D17*
X110429000Y-217449000D03*
D21*
X394324000Y-224322000D03*
D22*
X394324000Y-229322000D03*
X394324000Y-226822000D03*
D23*
X401824000Y-232422000D03*
X401824000Y-221222000D03*
D22*
X408824000Y-229322000D03*
X408824000Y-224322000D03*
D13*
X182084000Y-194310000D03*
D14*
X184624000Y-194310000D03*
X187164000Y-194310000D03*
X189704000Y-194310000D03*
X192244000Y-194310000D03*
X194784000Y-194310000D03*
X197324000Y-194310000D03*
X199864000Y-194310000D03*
X202404000Y-194310000D03*
X204944000Y-194310000D03*
X204944000Y-201930000D03*
X182084000Y-201930000D03*
D19*
X75846000Y-232918000D03*
D20*
X75846000Y-227838000D03*
D13*
X331584000Y-194310000D03*
D14*
X334124000Y-194310000D03*
X336664000Y-194310000D03*
X339204000Y-194310000D03*
X341744000Y-194310000D03*
X344284000Y-194310000D03*
X346824000Y-194310000D03*
X349364000Y-194310000D03*
X351904000Y-194310000D03*
X354444000Y-194310000D03*
X354444000Y-201930000D03*
X331584000Y-201930000D03*
D24*
X382843000Y-200533000D03*
X382843000Y-201803000D03*
X382843000Y-203073000D03*
X382843000Y-204343000D03*
X382843000Y-205613000D03*
X382843000Y-206883000D03*
X382843000Y-208153000D03*
X382843000Y-209423000D03*
X387793000Y-209423000D03*
X387793000Y-208153000D03*
X387793000Y-206883000D03*
X387793000Y-205613000D03*
X387793000Y-204343000D03*
X387793000Y-203073000D03*
X387793000Y-201803000D03*
X387793000Y-200533000D03*
D25*
X372553000Y-209423000D03*
X372553000Y-208153000D03*
X372553000Y-206883000D03*
X372553000Y-205613000D03*
X372553000Y-204343000D03*
X372553000Y-203073000D03*
X372553000Y-201803000D03*
X372553000Y-200533000D03*
X367603000Y-200533000D03*
X367603000Y-201803000D03*
X367603000Y-203073000D03*
X367603000Y-204343000D03*
X367603000Y-205613000D03*
X367603000Y-206883000D03*
X367603000Y-208153000D03*
X367603000Y-209423000D03*
D24*
X382843000Y-189865000D03*
X382843000Y-191135000D03*
X382843000Y-192405000D03*
X382843000Y-193675000D03*
X382843000Y-194945000D03*
X382843000Y-196215000D03*
X382843000Y-197485000D03*
X382843000Y-198755000D03*
X387793000Y-198755000D03*
X387793000Y-197485000D03*
X387793000Y-196215000D03*
X387793000Y-194945000D03*
X387793000Y-193675000D03*
X387793000Y-192405000D03*
X387793000Y-191135000D03*
X387793000Y-189865000D03*
M02*
