G04 #@! TF.GenerationSoftware,KiCad,Pcbnew,(6.0.6)*
G04 #@! TF.CreationDate,2022-08-14T15:31:57+08:00*
G04 #@! TF.ProjectId,led_scroll,6c65645f-7363-4726-9f6c-6c2e6b696361,rev?*
G04 #@! TF.SameCoordinates,Original*
G04 #@! TF.FileFunction,Legend,Top*
G04 #@! TF.FilePolarity,Positive*
%FSLAX46Y46*%
G04 Gerber Fmt 4.6, Leading zero omitted, Abs format (unit mm)*
G04 Created by KiCad (PCBNEW (6.0.6)) date 2022-08-14 15:31:57*
%MOMM*%
%LPD*%
G01*
G04 APERTURE LIST*
G04 Aperture macros list*
%AMRoundRect*
0 Rectangle with rounded corners*
0 $1 Rounding radius*
0 $2 $3 $4 $5 $6 $7 $8 $9 X,Y pos of 4 corners*
0 Add a 4 corners polygon primitive as box body*
4,1,4,$2,$3,$4,$5,$6,$7,$8,$9,$2,$3,0*
0 Add four circle primitives for the rounded corners*
1,1,$1+$1,$2,$3*
1,1,$1+$1,$4,$5*
1,1,$1+$1,$6,$7*
1,1,$1+$1,$8,$9*
0 Add four rect primitives between the rounded corners*
20,1,$1+$1,$2,$3,$4,$5,0*
20,1,$1+$1,$4,$5,$6,$7,0*
20,1,$1+$1,$6,$7,$8,$9,0*
20,1,$1+$1,$8,$9,$2,$3,0*%
G04 Aperture macros list end*
%ADD10C,0.070000*%
%ADD11C,0.150000*%
%ADD12C,0.120000*%
%ADD13C,0.127000*%
%ADD14RoundRect,0.200000X-0.200000X-0.275000X0.200000X-0.275000X0.200000X0.275000X-0.200000X0.275000X0*%
%ADD15RoundRect,0.200000X0.200000X0.275000X-0.200000X0.275000X-0.200000X-0.275000X0.200000X-0.275000X0*%
%ADD16RoundRect,0.150000X-0.825000X-0.150000X0.825000X-0.150000X0.825000X0.150000X-0.825000X0.150000X0*%
%ADD17R,1.500000X1.500000*%
%ADD18C,1.500000*%
%ADD19C,1.560000*%
%ADD20R,1.560000X1.560000*%
%ADD21O,1.700000X1.700000*%
%ADD22R,1.700000X1.700000*%
%ADD23R,2.800000X2.800000*%
%ADD24C,2.800000*%
%ADD25R,2.000000X2.000000*%
%ADD26C,2.000000*%
%ADD27R,3.200000X2.000000*%
G04 APERTURE END LIST*
D10*
X375250571Y-195894190D02*
X375083904Y-195656095D01*
X374964857Y-195894190D02*
X374964857Y-195394190D01*
X375155333Y-195394190D01*
X375202952Y-195418000D01*
X375226761Y-195441809D01*
X375250571Y-195489428D01*
X375250571Y-195560857D01*
X375226761Y-195608476D01*
X375202952Y-195632285D01*
X375155333Y-195656095D01*
X374964857Y-195656095D01*
X375417238Y-195394190D02*
X375726761Y-195394190D01*
X375560095Y-195584666D01*
X375631523Y-195584666D01*
X375679142Y-195608476D01*
X375702952Y-195632285D01*
X375726761Y-195679904D01*
X375726761Y-195798952D01*
X375702952Y-195846571D01*
X375679142Y-195870380D01*
X375631523Y-195894190D01*
X375488666Y-195894190D01*
X375441047Y-195870380D01*
X375417238Y-195846571D01*
X376155333Y-195560857D02*
X376155333Y-195894190D01*
X376036285Y-195370380D02*
X375917238Y-195727523D01*
X376226761Y-195727523D01*
X364074571Y-200974190D02*
X363907904Y-200736095D01*
X363788857Y-200974190D02*
X363788857Y-200474190D01*
X363979333Y-200474190D01*
X364026952Y-200498000D01*
X364050761Y-200521809D01*
X364074571Y-200569428D01*
X364074571Y-200640857D01*
X364050761Y-200688476D01*
X364026952Y-200712285D01*
X363979333Y-200736095D01*
X363788857Y-200736095D01*
X364241238Y-200474190D02*
X364550761Y-200474190D01*
X364384095Y-200664666D01*
X364455523Y-200664666D01*
X364503142Y-200688476D01*
X364526952Y-200712285D01*
X364550761Y-200759904D01*
X364550761Y-200878952D01*
X364526952Y-200926571D01*
X364503142Y-200950380D01*
X364455523Y-200974190D01*
X364312666Y-200974190D01*
X364265047Y-200950380D01*
X364241238Y-200926571D01*
X364741238Y-200521809D02*
X364765047Y-200498000D01*
X364812666Y-200474190D01*
X364931714Y-200474190D01*
X364979333Y-200498000D01*
X365003142Y-200521809D01*
X365026952Y-200569428D01*
X365026952Y-200617047D01*
X365003142Y-200688476D01*
X364717428Y-200974190D01*
X365026952Y-200974190D01*
X364074571Y-199450190D02*
X363907904Y-199212095D01*
X363788857Y-199450190D02*
X363788857Y-198950190D01*
X363979333Y-198950190D01*
X364026952Y-198974000D01*
X364050761Y-198997809D01*
X364074571Y-199045428D01*
X364074571Y-199116857D01*
X364050761Y-199164476D01*
X364026952Y-199188285D01*
X363979333Y-199212095D01*
X363788857Y-199212095D01*
X364241238Y-198950190D02*
X364550761Y-198950190D01*
X364384095Y-199140666D01*
X364455523Y-199140666D01*
X364503142Y-199164476D01*
X364526952Y-199188285D01*
X364550761Y-199235904D01*
X364550761Y-199354952D01*
X364526952Y-199402571D01*
X364503142Y-199426380D01*
X364455523Y-199450190D01*
X364312666Y-199450190D01*
X364265047Y-199426380D01*
X364241238Y-199402571D01*
X365026952Y-199450190D02*
X364741238Y-199450190D01*
X364884095Y-199450190D02*
X364884095Y-198950190D01*
X364836476Y-199021619D01*
X364788857Y-199069238D01*
X364741238Y-199093047D01*
X364074571Y-197926190D02*
X363907904Y-197688095D01*
X363788857Y-197926190D02*
X363788857Y-197426190D01*
X363979333Y-197426190D01*
X364026952Y-197450000D01*
X364050761Y-197473809D01*
X364074571Y-197521428D01*
X364074571Y-197592857D01*
X364050761Y-197640476D01*
X364026952Y-197664285D01*
X363979333Y-197688095D01*
X363788857Y-197688095D01*
X364241238Y-197426190D02*
X364550761Y-197426190D01*
X364384095Y-197616666D01*
X364455523Y-197616666D01*
X364503142Y-197640476D01*
X364526952Y-197664285D01*
X364550761Y-197711904D01*
X364550761Y-197830952D01*
X364526952Y-197878571D01*
X364503142Y-197902380D01*
X364455523Y-197926190D01*
X364312666Y-197926190D01*
X364265047Y-197902380D01*
X364241238Y-197878571D01*
X364860285Y-197426190D02*
X364907904Y-197426190D01*
X364955523Y-197450000D01*
X364979333Y-197473809D01*
X365003142Y-197521428D01*
X365026952Y-197616666D01*
X365026952Y-197735714D01*
X365003142Y-197830952D01*
X364979333Y-197878571D01*
X364955523Y-197902380D01*
X364907904Y-197926190D01*
X364860285Y-197926190D01*
X364812666Y-197902380D01*
X364788857Y-197878571D01*
X364765047Y-197830952D01*
X364741238Y-197735714D01*
X364741238Y-197616666D01*
X364765047Y-197521428D01*
X364788857Y-197473809D01*
X364812666Y-197450000D01*
X364860285Y-197426190D01*
X364074571Y-196529190D02*
X363907904Y-196291095D01*
X363788857Y-196529190D02*
X363788857Y-196029190D01*
X363979333Y-196029190D01*
X364026952Y-196053000D01*
X364050761Y-196076809D01*
X364074571Y-196124428D01*
X364074571Y-196195857D01*
X364050761Y-196243476D01*
X364026952Y-196267285D01*
X363979333Y-196291095D01*
X363788857Y-196291095D01*
X364265047Y-196076809D02*
X364288857Y-196053000D01*
X364336476Y-196029190D01*
X364455523Y-196029190D01*
X364503142Y-196053000D01*
X364526952Y-196076809D01*
X364550761Y-196124428D01*
X364550761Y-196172047D01*
X364526952Y-196243476D01*
X364241238Y-196529190D01*
X364550761Y-196529190D01*
X364788857Y-196529190D02*
X364884095Y-196529190D01*
X364931714Y-196505380D01*
X364955523Y-196481571D01*
X365003142Y-196410142D01*
X365026952Y-196314904D01*
X365026952Y-196124428D01*
X365003142Y-196076809D01*
X364979333Y-196053000D01*
X364931714Y-196029190D01*
X364836476Y-196029190D01*
X364788857Y-196053000D01*
X364765047Y-196076809D01*
X364741238Y-196124428D01*
X364741238Y-196243476D01*
X364765047Y-196291095D01*
X364788857Y-196314904D01*
X364836476Y-196338714D01*
X364931714Y-196338714D01*
X364979333Y-196314904D01*
X365003142Y-196291095D01*
X365026952Y-196243476D01*
X364074571Y-195005190D02*
X363907904Y-194767095D01*
X363788857Y-195005190D02*
X363788857Y-194505190D01*
X363979333Y-194505190D01*
X364026952Y-194529000D01*
X364050761Y-194552809D01*
X364074571Y-194600428D01*
X364074571Y-194671857D01*
X364050761Y-194719476D01*
X364026952Y-194743285D01*
X363979333Y-194767095D01*
X363788857Y-194767095D01*
X364265047Y-194552809D02*
X364288857Y-194529000D01*
X364336476Y-194505190D01*
X364455523Y-194505190D01*
X364503142Y-194529000D01*
X364526952Y-194552809D01*
X364550761Y-194600428D01*
X364550761Y-194648047D01*
X364526952Y-194719476D01*
X364241238Y-195005190D01*
X364550761Y-195005190D01*
X364836476Y-194719476D02*
X364788857Y-194695666D01*
X364765047Y-194671857D01*
X364741238Y-194624238D01*
X364741238Y-194600428D01*
X364765047Y-194552809D01*
X364788857Y-194529000D01*
X364836476Y-194505190D01*
X364931714Y-194505190D01*
X364979333Y-194529000D01*
X365003142Y-194552809D01*
X365026952Y-194600428D01*
X365026952Y-194624238D01*
X365003142Y-194671857D01*
X364979333Y-194695666D01*
X364931714Y-194719476D01*
X364836476Y-194719476D01*
X364788857Y-194743285D01*
X364765047Y-194767095D01*
X364741238Y-194814714D01*
X364741238Y-194909952D01*
X364765047Y-194957571D01*
X364788857Y-194981380D01*
X364836476Y-195005190D01*
X364931714Y-195005190D01*
X364979333Y-194981380D01*
X365003142Y-194957571D01*
X365026952Y-194909952D01*
X365026952Y-194814714D01*
X365003142Y-194767095D01*
X364979333Y-194743285D01*
X364931714Y-194719476D01*
X364074571Y-193481190D02*
X363907904Y-193243095D01*
X363788857Y-193481190D02*
X363788857Y-192981190D01*
X363979333Y-192981190D01*
X364026952Y-193005000D01*
X364050761Y-193028809D01*
X364074571Y-193076428D01*
X364074571Y-193147857D01*
X364050761Y-193195476D01*
X364026952Y-193219285D01*
X363979333Y-193243095D01*
X363788857Y-193243095D01*
X364265047Y-193028809D02*
X364288857Y-193005000D01*
X364336476Y-192981190D01*
X364455523Y-192981190D01*
X364503142Y-193005000D01*
X364526952Y-193028809D01*
X364550761Y-193076428D01*
X364550761Y-193124047D01*
X364526952Y-193195476D01*
X364241238Y-193481190D01*
X364550761Y-193481190D01*
X364717428Y-192981190D02*
X365050761Y-192981190D01*
X364836476Y-193481190D01*
X364074571Y-191957190D02*
X363907904Y-191719095D01*
X363788857Y-191957190D02*
X363788857Y-191457190D01*
X363979333Y-191457190D01*
X364026952Y-191481000D01*
X364050761Y-191504809D01*
X364074571Y-191552428D01*
X364074571Y-191623857D01*
X364050761Y-191671476D01*
X364026952Y-191695285D01*
X363979333Y-191719095D01*
X363788857Y-191719095D01*
X364265047Y-191504809D02*
X364288857Y-191481000D01*
X364336476Y-191457190D01*
X364455523Y-191457190D01*
X364503142Y-191481000D01*
X364526952Y-191504809D01*
X364550761Y-191552428D01*
X364550761Y-191600047D01*
X364526952Y-191671476D01*
X364241238Y-191957190D01*
X364550761Y-191957190D01*
X364979333Y-191457190D02*
X364884095Y-191457190D01*
X364836476Y-191481000D01*
X364812666Y-191504809D01*
X364765047Y-191576238D01*
X364741238Y-191671476D01*
X364741238Y-191861952D01*
X364765047Y-191909571D01*
X364788857Y-191933380D01*
X364836476Y-191957190D01*
X364931714Y-191957190D01*
X364979333Y-191933380D01*
X365003142Y-191909571D01*
X365026952Y-191861952D01*
X365026952Y-191742904D01*
X365003142Y-191695285D01*
X364979333Y-191671476D01*
X364931714Y-191647666D01*
X364836476Y-191647666D01*
X364788857Y-191671476D01*
X364765047Y-191695285D01*
X364741238Y-191742904D01*
X364074571Y-190433190D02*
X363907904Y-190195095D01*
X363788857Y-190433190D02*
X363788857Y-189933190D01*
X363979333Y-189933190D01*
X364026952Y-189957000D01*
X364050761Y-189980809D01*
X364074571Y-190028428D01*
X364074571Y-190099857D01*
X364050761Y-190147476D01*
X364026952Y-190171285D01*
X363979333Y-190195095D01*
X363788857Y-190195095D01*
X364265047Y-189980809D02*
X364288857Y-189957000D01*
X364336476Y-189933190D01*
X364455523Y-189933190D01*
X364503142Y-189957000D01*
X364526952Y-189980809D01*
X364550761Y-190028428D01*
X364550761Y-190076047D01*
X364526952Y-190147476D01*
X364241238Y-190433190D01*
X364550761Y-190433190D01*
X365003142Y-189933190D02*
X364765047Y-189933190D01*
X364741238Y-190171285D01*
X364765047Y-190147476D01*
X364812666Y-190123666D01*
X364931714Y-190123666D01*
X364979333Y-190147476D01*
X365003142Y-190171285D01*
X365026952Y-190218904D01*
X365026952Y-190337952D01*
X365003142Y-190385571D01*
X364979333Y-190409380D01*
X364931714Y-190433190D01*
X364812666Y-190433190D01*
X364765047Y-190409380D01*
X364741238Y-190385571D01*
X364074571Y-188909190D02*
X363907904Y-188671095D01*
X363788857Y-188909190D02*
X363788857Y-188409190D01*
X363979333Y-188409190D01*
X364026952Y-188433000D01*
X364050761Y-188456809D01*
X364074571Y-188504428D01*
X364074571Y-188575857D01*
X364050761Y-188623476D01*
X364026952Y-188647285D01*
X363979333Y-188671095D01*
X363788857Y-188671095D01*
X364265047Y-188456809D02*
X364288857Y-188433000D01*
X364336476Y-188409190D01*
X364455523Y-188409190D01*
X364503142Y-188433000D01*
X364526952Y-188456809D01*
X364550761Y-188504428D01*
X364550761Y-188552047D01*
X364526952Y-188623476D01*
X364241238Y-188909190D01*
X364550761Y-188909190D01*
X364979333Y-188575857D02*
X364979333Y-188909190D01*
X364860285Y-188385380D02*
X364741238Y-188742523D01*
X365050761Y-188742523D01*
X364074571Y-187258190D02*
X363907904Y-187020095D01*
X363788857Y-187258190D02*
X363788857Y-186758190D01*
X363979333Y-186758190D01*
X364026952Y-186782000D01*
X364050761Y-186805809D01*
X364074571Y-186853428D01*
X364074571Y-186924857D01*
X364050761Y-186972476D01*
X364026952Y-186996285D01*
X363979333Y-187020095D01*
X363788857Y-187020095D01*
X364265047Y-186805809D02*
X364288857Y-186782000D01*
X364336476Y-186758190D01*
X364455523Y-186758190D01*
X364503142Y-186782000D01*
X364526952Y-186805809D01*
X364550761Y-186853428D01*
X364550761Y-186901047D01*
X364526952Y-186972476D01*
X364241238Y-187258190D01*
X364550761Y-187258190D01*
X364717428Y-186758190D02*
X365026952Y-186758190D01*
X364860285Y-186948666D01*
X364931714Y-186948666D01*
X364979333Y-186972476D01*
X365003142Y-186996285D01*
X365026952Y-187043904D01*
X365026952Y-187162952D01*
X365003142Y-187210571D01*
X364979333Y-187234380D01*
X364931714Y-187258190D01*
X364788857Y-187258190D01*
X364741238Y-187234380D01*
X364717428Y-187210571D01*
D11*
X368839904Y-210780380D02*
X368839904Y-211589904D01*
X368887523Y-211685142D01*
X368935142Y-211732761D01*
X369030380Y-211780380D01*
X369220857Y-211780380D01*
X369316095Y-211732761D01*
X369363714Y-211685142D01*
X369411333Y-211589904D01*
X369411333Y-210780380D01*
X370411333Y-211780380D02*
X369839904Y-211780380D01*
X370125619Y-211780380D02*
X370125619Y-210780380D01*
X370030380Y-210923238D01*
X369935142Y-211018476D01*
X369839904Y-211066095D01*
X370792285Y-210875619D02*
X370839904Y-210828000D01*
X370935142Y-210780380D01*
X371173238Y-210780380D01*
X371268476Y-210828000D01*
X371316095Y-210875619D01*
X371363714Y-210970857D01*
X371363714Y-211066095D01*
X371316095Y-211208952D01*
X370744666Y-211780380D01*
X371363714Y-211780380D01*
X239045904Y-187362380D02*
X239045904Y-188171904D01*
X239093523Y-188267142D01*
X239141142Y-188314761D01*
X239236380Y-188362380D01*
X239426857Y-188362380D01*
X239522095Y-188314761D01*
X239569714Y-188267142D01*
X239617333Y-188171904D01*
X239617333Y-187362380D01*
X240617333Y-188362380D02*
X240045904Y-188362380D01*
X240331619Y-188362380D02*
X240331619Y-187362380D01*
X240236380Y-187505238D01*
X240141142Y-187600476D01*
X240045904Y-187648095D01*
X241522095Y-187362380D02*
X241045904Y-187362380D01*
X240998285Y-187838571D01*
X241045904Y-187790952D01*
X241141142Y-187743333D01*
X241379238Y-187743333D01*
X241474476Y-187790952D01*
X241522095Y-187838571D01*
X241569714Y-187933809D01*
X241569714Y-188171904D01*
X241522095Y-188267142D01*
X241474476Y-188314761D01*
X241379238Y-188362380D01*
X241141142Y-188362380D01*
X241045904Y-188314761D01*
X240998285Y-188267142D01*
X298845904Y-187362380D02*
X298845904Y-188171904D01*
X298893523Y-188267142D01*
X298941142Y-188314761D01*
X299036380Y-188362380D01*
X299226857Y-188362380D01*
X299322095Y-188314761D01*
X299369714Y-188267142D01*
X299417333Y-188171904D01*
X299417333Y-187362380D01*
X300417333Y-188362380D02*
X299845904Y-188362380D01*
X300131619Y-188362380D02*
X300131619Y-187362380D01*
X300036380Y-187505238D01*
X299941142Y-187600476D01*
X299845904Y-187648095D01*
X300750666Y-187362380D02*
X301417333Y-187362380D01*
X300988761Y-188362380D01*
X378206095Y-187412380D02*
X378206095Y-188221904D01*
X378253714Y-188317142D01*
X378301333Y-188364761D01*
X378396571Y-188412380D01*
X378587047Y-188412380D01*
X378682285Y-188364761D01*
X378729904Y-188317142D01*
X378777523Y-188221904D01*
X378777523Y-187412380D01*
X379682285Y-187745714D02*
X379682285Y-188412380D01*
X379444190Y-187364761D02*
X379206095Y-188079047D01*
X379825142Y-188079047D01*
X119445904Y-187362380D02*
X119445904Y-188171904D01*
X119493523Y-188267142D01*
X119541142Y-188314761D01*
X119636380Y-188362380D01*
X119826857Y-188362380D01*
X119922095Y-188314761D01*
X119969714Y-188267142D01*
X120017333Y-188171904D01*
X120017333Y-187362380D01*
X121017333Y-188362380D02*
X120445904Y-188362380D01*
X120731619Y-188362380D02*
X120731619Y-187362380D01*
X120636380Y-187505238D01*
X120541142Y-187600476D01*
X120445904Y-187648095D01*
X121636380Y-187362380D02*
X121731619Y-187362380D01*
X121826857Y-187410000D01*
X121874476Y-187457619D01*
X121922095Y-187552857D01*
X121969714Y-187743333D01*
X121969714Y-187981428D01*
X121922095Y-188171904D01*
X121874476Y-188267142D01*
X121826857Y-188314761D01*
X121731619Y-188362380D01*
X121636380Y-188362380D01*
X121541142Y-188314761D01*
X121493523Y-188267142D01*
X121445904Y-188171904D01*
X121398285Y-187981428D01*
X121398285Y-187743333D01*
X121445904Y-187552857D01*
X121493523Y-187457619D01*
X121541142Y-187410000D01*
X121636380Y-187362380D01*
X149345904Y-187362380D02*
X149345904Y-188171904D01*
X149393523Y-188267142D01*
X149441142Y-188314761D01*
X149536380Y-188362380D01*
X149726857Y-188362380D01*
X149822095Y-188314761D01*
X149869714Y-188267142D01*
X149917333Y-188171904D01*
X149917333Y-187362380D01*
X150917333Y-188362380D02*
X150345904Y-188362380D01*
X150631619Y-188362380D02*
X150631619Y-187362380D01*
X150536380Y-187505238D01*
X150441142Y-187600476D01*
X150345904Y-187648095D01*
X151869714Y-188362380D02*
X151298285Y-188362380D01*
X151584000Y-188362380D02*
X151584000Y-187362380D01*
X151488761Y-187505238D01*
X151393523Y-187600476D01*
X151298285Y-187648095D01*
X308102095Y-211034380D02*
X308102095Y-211843904D01*
X308149714Y-211939142D01*
X308197333Y-211986761D01*
X308292571Y-212034380D01*
X308483047Y-212034380D01*
X308578285Y-211986761D01*
X308625904Y-211939142D01*
X308673523Y-211843904D01*
X308673523Y-211034380D01*
X309102095Y-211129619D02*
X309149714Y-211082000D01*
X309244952Y-211034380D01*
X309483047Y-211034380D01*
X309578285Y-211082000D01*
X309625904Y-211129619D01*
X309673523Y-211224857D01*
X309673523Y-211320095D01*
X309625904Y-211462952D01*
X309054476Y-212034380D01*
X309673523Y-212034380D01*
X112807904Y-234656380D02*
X112807904Y-235465904D01*
X112855523Y-235561142D01*
X112903142Y-235608761D01*
X112998380Y-235656380D01*
X113188857Y-235656380D01*
X113284095Y-235608761D01*
X113331714Y-235561142D01*
X113379333Y-235465904D01*
X113379333Y-234656380D01*
X114379333Y-235656380D02*
X113807904Y-235656380D01*
X114093619Y-235656380D02*
X114093619Y-234656380D01*
X113998380Y-234799238D01*
X113903142Y-234894476D01*
X113807904Y-234942095D01*
X114855523Y-235656380D02*
X115046000Y-235656380D01*
X115141238Y-235608761D01*
X115188857Y-235561142D01*
X115284095Y-235418285D01*
X115331714Y-235227809D01*
X115331714Y-234846857D01*
X115284095Y-234751619D01*
X115236476Y-234704000D01*
X115141238Y-234656380D01*
X114950761Y-234656380D01*
X114855523Y-234704000D01*
X114807904Y-234751619D01*
X114760285Y-234846857D01*
X114760285Y-235084952D01*
X114807904Y-235180190D01*
X114855523Y-235227809D01*
X114950761Y-235275428D01*
X115141238Y-235275428D01*
X115236476Y-235227809D01*
X115284095Y-235180190D01*
X115331714Y-235084952D01*
X90022095Y-187362380D02*
X90022095Y-188171904D01*
X90069714Y-188267142D01*
X90117333Y-188314761D01*
X90212571Y-188362380D01*
X90403047Y-188362380D01*
X90498285Y-188314761D01*
X90545904Y-188267142D01*
X90593523Y-188171904D01*
X90593523Y-187362380D01*
X91212571Y-187790952D02*
X91117333Y-187743333D01*
X91069714Y-187695714D01*
X91022095Y-187600476D01*
X91022095Y-187552857D01*
X91069714Y-187457619D01*
X91117333Y-187410000D01*
X91212571Y-187362380D01*
X91403047Y-187362380D01*
X91498285Y-187410000D01*
X91545904Y-187457619D01*
X91593523Y-187552857D01*
X91593523Y-187600476D01*
X91545904Y-187695714D01*
X91498285Y-187743333D01*
X91403047Y-187790952D01*
X91212571Y-187790952D01*
X91117333Y-187838571D01*
X91069714Y-187886190D01*
X91022095Y-187981428D01*
X91022095Y-188171904D01*
X91069714Y-188267142D01*
X91117333Y-188314761D01*
X91212571Y-188362380D01*
X91403047Y-188362380D01*
X91498285Y-188314761D01*
X91545904Y-188267142D01*
X91593523Y-188171904D01*
X91593523Y-187981428D01*
X91545904Y-187886190D01*
X91498285Y-187838571D01*
X91403047Y-187790952D01*
X209145904Y-187362380D02*
X209145904Y-188171904D01*
X209193523Y-188267142D01*
X209241142Y-188314761D01*
X209336380Y-188362380D01*
X209526857Y-188362380D01*
X209622095Y-188314761D01*
X209669714Y-188267142D01*
X209717333Y-188171904D01*
X209717333Y-187362380D01*
X210717333Y-188362380D02*
X210145904Y-188362380D01*
X210431619Y-188362380D02*
X210431619Y-187362380D01*
X210336380Y-187505238D01*
X210241142Y-187600476D01*
X210145904Y-187648095D01*
X211574476Y-187695714D02*
X211574476Y-188362380D01*
X211336380Y-187314761D02*
X211098285Y-188029047D01*
X211717333Y-188029047D01*
X80184666Y-212558380D02*
X80184666Y-213272666D01*
X80137047Y-213415523D01*
X80041809Y-213510761D01*
X79898952Y-213558380D01*
X79803714Y-213558380D01*
X81184666Y-213558380D02*
X80613238Y-213558380D01*
X80898952Y-213558380D02*
X80898952Y-212558380D01*
X80803714Y-212701238D01*
X80708476Y-212796476D01*
X80613238Y-212844095D01*
X268945904Y-187362380D02*
X268945904Y-188171904D01*
X268993523Y-188267142D01*
X269041142Y-188314761D01*
X269136380Y-188362380D01*
X269326857Y-188362380D01*
X269422095Y-188314761D01*
X269469714Y-188267142D01*
X269517333Y-188171904D01*
X269517333Y-187362380D01*
X270517333Y-188362380D02*
X269945904Y-188362380D01*
X270231619Y-188362380D02*
X270231619Y-187362380D01*
X270136380Y-187505238D01*
X270041142Y-187600476D01*
X269945904Y-187648095D01*
X271374476Y-187362380D02*
X271184000Y-187362380D01*
X271088761Y-187410000D01*
X271041142Y-187457619D01*
X270945904Y-187600476D01*
X270898285Y-187790952D01*
X270898285Y-188171904D01*
X270945904Y-188267142D01*
X270993523Y-188314761D01*
X271088761Y-188362380D01*
X271279238Y-188362380D01*
X271374476Y-188314761D01*
X271422095Y-188267142D01*
X271469714Y-188171904D01*
X271469714Y-187933809D01*
X271422095Y-187838571D01*
X271374476Y-187790952D01*
X271279238Y-187743333D01*
X271088761Y-187743333D01*
X270993523Y-187790952D01*
X270945904Y-187838571D01*
X270898285Y-187933809D01*
X60122095Y-187362380D02*
X60122095Y-188171904D01*
X60169714Y-188267142D01*
X60217333Y-188314761D01*
X60312571Y-188362380D01*
X60503047Y-188362380D01*
X60598285Y-188314761D01*
X60645904Y-188267142D01*
X60693523Y-188171904D01*
X60693523Y-187362380D01*
X61598285Y-187362380D02*
X61407809Y-187362380D01*
X61312571Y-187410000D01*
X61264952Y-187457619D01*
X61169714Y-187600476D01*
X61122095Y-187790952D01*
X61122095Y-188171904D01*
X61169714Y-188267142D01*
X61217333Y-188314761D01*
X61312571Y-188362380D01*
X61503047Y-188362380D01*
X61598285Y-188314761D01*
X61645904Y-188267142D01*
X61693523Y-188171904D01*
X61693523Y-187933809D01*
X61645904Y-187838571D01*
X61598285Y-187790952D01*
X61503047Y-187743333D01*
X61312571Y-187743333D01*
X61217333Y-187790952D01*
X61169714Y-187838571D01*
X61122095Y-187933809D01*
X112776095Y-213574380D02*
X112776095Y-214383904D01*
X112823714Y-214479142D01*
X112871333Y-214526761D01*
X112966571Y-214574380D01*
X113157047Y-214574380D01*
X113252285Y-214526761D01*
X113299904Y-214479142D01*
X113347523Y-214383904D01*
X113347523Y-213574380D01*
X114347523Y-214574380D02*
X113776095Y-214574380D01*
X114061809Y-214574380D02*
X114061809Y-213574380D01*
X113966571Y-213717238D01*
X113871333Y-213812476D01*
X113776095Y-213860095D01*
X395790666Y-220026761D02*
X395933523Y-220074380D01*
X396171619Y-220074380D01*
X396266857Y-220026761D01*
X396314476Y-219979142D01*
X396362095Y-219883904D01*
X396362095Y-219788666D01*
X396314476Y-219693428D01*
X396266857Y-219645809D01*
X396171619Y-219598190D01*
X395981142Y-219550571D01*
X395885904Y-219502952D01*
X395838285Y-219455333D01*
X395790666Y-219360095D01*
X395790666Y-219264857D01*
X395838285Y-219169619D01*
X395885904Y-219122000D01*
X395981142Y-219074380D01*
X396219238Y-219074380D01*
X396362095Y-219122000D01*
X396695428Y-219074380D02*
X396933523Y-220074380D01*
X397124000Y-219360095D01*
X397314476Y-220074380D01*
X397552571Y-219074380D01*
X398457333Y-220074380D02*
X397885904Y-220074380D01*
X398171619Y-220074380D02*
X398171619Y-219074380D01*
X398076380Y-219217238D01*
X397981142Y-219312476D01*
X397885904Y-219360095D01*
X179245904Y-187362380D02*
X179245904Y-188171904D01*
X179293523Y-188267142D01*
X179341142Y-188314761D01*
X179436380Y-188362380D01*
X179626857Y-188362380D01*
X179722095Y-188314761D01*
X179769714Y-188267142D01*
X179817333Y-188171904D01*
X179817333Y-187362380D01*
X180817333Y-188362380D02*
X180245904Y-188362380D01*
X180531619Y-188362380D02*
X180531619Y-187362380D01*
X180436380Y-187505238D01*
X180341142Y-187600476D01*
X180245904Y-187648095D01*
X181150666Y-187362380D02*
X181769714Y-187362380D01*
X181436380Y-187743333D01*
X181579238Y-187743333D01*
X181674476Y-187790952D01*
X181722095Y-187838571D01*
X181769714Y-187933809D01*
X181769714Y-188171904D01*
X181722095Y-188267142D01*
X181674476Y-188314761D01*
X181579238Y-188362380D01*
X181293523Y-188362380D01*
X181198285Y-188314761D01*
X181150666Y-188267142D01*
X369316095Y-187412380D02*
X369316095Y-188221904D01*
X369363714Y-188317142D01*
X369411333Y-188364761D01*
X369506571Y-188412380D01*
X369697047Y-188412380D01*
X369792285Y-188364761D01*
X369839904Y-188317142D01*
X369887523Y-188221904D01*
X369887523Y-187412380D01*
X370411333Y-188412380D02*
X370601809Y-188412380D01*
X370697047Y-188364761D01*
X370744666Y-188317142D01*
X370839904Y-188174285D01*
X370887523Y-187983809D01*
X370887523Y-187602857D01*
X370839904Y-187507619D01*
X370792285Y-187460000D01*
X370697047Y-187412380D01*
X370506571Y-187412380D01*
X370411333Y-187460000D01*
X370363714Y-187507619D01*
X370316095Y-187602857D01*
X370316095Y-187840952D01*
X370363714Y-187936190D01*
X370411333Y-187983809D01*
X370506571Y-188031428D01*
X370697047Y-188031428D01*
X370792285Y-187983809D01*
X370839904Y-187936190D01*
X370887523Y-187840952D01*
X79930666Y-235926380D02*
X79930666Y-236640666D01*
X79883047Y-236783523D01*
X79787809Y-236878761D01*
X79644952Y-236926380D01*
X79549714Y-236926380D01*
X80359238Y-236021619D02*
X80406857Y-235974000D01*
X80502095Y-235926380D01*
X80740190Y-235926380D01*
X80835428Y-235974000D01*
X80883047Y-236021619D01*
X80930666Y-236116857D01*
X80930666Y-236212095D01*
X80883047Y-236354952D01*
X80311619Y-236926380D01*
X80930666Y-236926380D01*
X328745904Y-187362380D02*
X328745904Y-188171904D01*
X328793523Y-188267142D01*
X328841142Y-188314761D01*
X328936380Y-188362380D01*
X329126857Y-188362380D01*
X329222095Y-188314761D01*
X329269714Y-188267142D01*
X329317333Y-188171904D01*
X329317333Y-187362380D01*
X330317333Y-188362380D02*
X329745904Y-188362380D01*
X330031619Y-188362380D02*
X330031619Y-187362380D01*
X329936380Y-187505238D01*
X329841142Y-187600476D01*
X329745904Y-187648095D01*
X330888761Y-187790952D02*
X330793523Y-187743333D01*
X330745904Y-187695714D01*
X330698285Y-187600476D01*
X330698285Y-187552857D01*
X330745904Y-187457619D01*
X330793523Y-187410000D01*
X330888761Y-187362380D01*
X331079238Y-187362380D01*
X331174476Y-187410000D01*
X331222095Y-187457619D01*
X331269714Y-187552857D01*
X331269714Y-187600476D01*
X331222095Y-187695714D01*
X331174476Y-187743333D01*
X331079238Y-187790952D01*
X330888761Y-187790952D01*
X330793523Y-187838571D01*
X330745904Y-187886190D01*
X330698285Y-187981428D01*
X330698285Y-188171904D01*
X330745904Y-188267142D01*
X330793523Y-188314761D01*
X330888761Y-188362380D01*
X331079238Y-188362380D01*
X331174476Y-188314761D01*
X331222095Y-188267142D01*
X331269714Y-188171904D01*
X331269714Y-187981428D01*
X331222095Y-187886190D01*
X331174476Y-187838571D01*
X331079238Y-187790952D01*
D12*
X375334742Y-197460500D02*
X375809258Y-197460500D01*
X375334742Y-196415500D02*
X375809258Y-196415500D01*
X362030258Y-200313500D02*
X361555742Y-200313500D01*
X362030258Y-201358500D02*
X361555742Y-201358500D01*
X362030258Y-198789500D02*
X361555742Y-198789500D01*
X362030258Y-199834500D02*
X361555742Y-199834500D01*
X362030258Y-197265500D02*
X361555742Y-197265500D01*
X362030258Y-198310500D02*
X361555742Y-198310500D01*
X362030258Y-195741500D02*
X361555742Y-195741500D01*
X362030258Y-196786500D02*
X361555742Y-196786500D01*
X362030258Y-194217500D02*
X361555742Y-194217500D01*
X362030258Y-195262500D02*
X361555742Y-195262500D01*
X362030258Y-192693500D02*
X361555742Y-192693500D01*
X362030258Y-193738500D02*
X361555742Y-193738500D01*
X362030258Y-191169500D02*
X361555742Y-191169500D01*
X362030258Y-192214500D02*
X361555742Y-192214500D01*
X362030258Y-189645500D02*
X361555742Y-189645500D01*
X362030258Y-190690500D02*
X361555742Y-190690500D01*
X362030258Y-189166500D02*
X361555742Y-189166500D01*
X362030258Y-188121500D02*
X361555742Y-188121500D01*
X362030258Y-187554500D02*
X361555742Y-187554500D01*
X362030258Y-186509500D02*
X361555742Y-186509500D01*
X370078000Y-210038000D02*
X372028000Y-210038000D01*
X370078000Y-199918000D02*
X372028000Y-199918000D01*
X370078000Y-199918000D02*
X366628000Y-199918000D01*
X370078000Y-210038000D02*
X368128000Y-210038000D01*
X240884000Y-188810000D02*
X242884000Y-188810000D01*
X238364000Y-207120000D02*
X268264000Y-207120000D01*
X268264000Y-207120000D02*
X268264000Y-189120000D01*
X238364000Y-207120000D02*
X238364000Y-189120000D01*
X238364000Y-189120000D02*
X268264000Y-189120000D01*
X298164000Y-189120000D02*
X328064000Y-189120000D01*
X298164000Y-207120000D02*
X328064000Y-207120000D01*
X298164000Y-207120000D02*
X298164000Y-189120000D01*
X300684000Y-188810000D02*
X302684000Y-188810000D01*
X328064000Y-207120000D02*
X328064000Y-189120000D01*
X377320000Y-208145000D02*
X377320000Y-188905000D01*
X377320000Y-208145000D02*
X427860000Y-208145000D01*
X395240000Y-208525000D02*
X397240000Y-208525000D01*
X427860000Y-188905000D02*
X377320000Y-188905000D01*
X427860000Y-208145000D02*
X427860000Y-188905000D01*
X118764000Y-207120000D02*
X148664000Y-207120000D01*
X118764000Y-207120000D02*
X118764000Y-189120000D01*
X148664000Y-207120000D02*
X148664000Y-189120000D01*
X118764000Y-189120000D02*
X148664000Y-189120000D01*
X121284000Y-188810000D02*
X123284000Y-188810000D01*
X148664000Y-207120000D02*
X148664000Y-189120000D01*
X178564000Y-207120000D02*
X178564000Y-189120000D01*
X151184000Y-188810000D02*
X153184000Y-188810000D01*
X148664000Y-207120000D02*
X178564000Y-207120000D01*
X148664000Y-189120000D02*
X178564000Y-189120000D01*
D13*
X307622000Y-240444500D02*
X307622000Y-212544500D01*
X362022000Y-240444500D02*
X307622000Y-240444500D01*
X307622000Y-212544500D02*
X362022000Y-212544500D01*
X362022000Y-212544500D02*
X362022000Y-240444500D01*
D12*
X89529000Y-233028000D02*
X88199000Y-233028000D01*
X111814000Y-224928000D02*
X86814000Y-224928000D01*
X111759000Y-231698000D02*
X111759000Y-233028000D01*
X111759000Y-230428000D02*
X109099000Y-230428000D01*
X111759000Y-233028000D02*
X110429000Y-233028000D01*
X86814000Y-235928000D02*
X111814000Y-235928000D01*
X89529000Y-230428000D02*
X86869000Y-230428000D01*
X89529000Y-230428000D02*
X89529000Y-227828000D01*
X89529000Y-227828000D02*
X86869000Y-227828000D01*
X111814000Y-235928000D02*
X111814000Y-224928000D01*
X86869000Y-230428000D02*
X86869000Y-227828000D01*
X109099000Y-230428000D02*
X109099000Y-227828000D01*
X89529000Y-231698000D02*
X89529000Y-233028000D01*
X111759000Y-227828000D02*
X109099000Y-227828000D01*
X86814000Y-224928000D02*
X86814000Y-235928000D01*
X111759000Y-230428000D02*
X111759000Y-227828000D01*
X88864000Y-189120000D02*
X118764000Y-189120000D01*
X118764000Y-207120000D02*
X118764000Y-189120000D01*
X88864000Y-207120000D02*
X88864000Y-189120000D01*
X88864000Y-207120000D02*
X118764000Y-207120000D01*
X91384000Y-188810000D02*
X93384000Y-188810000D01*
X238364000Y-207120000D02*
X238364000Y-189120000D01*
X208464000Y-207120000D02*
X208464000Y-189120000D01*
X208464000Y-207120000D02*
X238364000Y-207120000D01*
X208464000Y-189120000D02*
X238364000Y-189120000D01*
X210984000Y-188810000D02*
X212984000Y-188810000D01*
X81146000Y-224282000D02*
X81146000Y-214122000D01*
X81146000Y-214122000D02*
X70646000Y-214122000D01*
X81146000Y-224282000D02*
X70646000Y-224282000D01*
X70646000Y-224282000D02*
X70646000Y-214122000D01*
X270784000Y-188810000D02*
X272784000Y-188810000D01*
X298164000Y-207120000D02*
X298164000Y-189120000D01*
X268264000Y-189120000D02*
X298164000Y-189120000D01*
X268264000Y-207120000D02*
X298164000Y-207120000D01*
X268264000Y-207120000D02*
X268264000Y-189120000D01*
X61484000Y-188810000D02*
X63484000Y-188810000D01*
X58964000Y-189120000D02*
X88864000Y-189120000D01*
X58964000Y-207120000D02*
X58964000Y-189120000D01*
X58964000Y-207120000D02*
X88864000Y-207120000D01*
X88864000Y-207120000D02*
X88864000Y-189120000D01*
X86869000Y-218719000D02*
X86869000Y-216119000D01*
X111814000Y-224219000D02*
X111814000Y-213219000D01*
X89529000Y-219989000D02*
X89529000Y-221319000D01*
X89529000Y-218719000D02*
X86869000Y-218719000D01*
X111759000Y-218719000D02*
X111759000Y-216119000D01*
X89529000Y-218719000D02*
X89529000Y-216119000D01*
X89529000Y-221319000D02*
X88199000Y-221319000D01*
X86814000Y-224219000D02*
X111814000Y-224219000D01*
X111759000Y-216119000D02*
X109099000Y-216119000D01*
X111759000Y-219989000D02*
X111759000Y-221319000D01*
X111759000Y-221319000D02*
X110429000Y-221319000D01*
X111759000Y-218719000D02*
X109099000Y-218719000D01*
X111814000Y-213219000D02*
X86814000Y-213219000D01*
X86814000Y-213219000D02*
X86814000Y-224219000D01*
X89529000Y-216119000D02*
X86869000Y-216119000D01*
X109099000Y-218719000D02*
X109099000Y-216119000D01*
X401824000Y-226322000D02*
X401824000Y-227322000D01*
X394024000Y-222722000D02*
X394624000Y-222722000D01*
X407924000Y-220922000D02*
X407924000Y-223322000D01*
X399824000Y-220922000D02*
X395724000Y-220922000D01*
X394324000Y-223022000D02*
X394024000Y-222722000D01*
X395724000Y-220922000D02*
X395724000Y-232722000D01*
X407924000Y-232722000D02*
X403824000Y-232722000D01*
X407924000Y-230322000D02*
X407924000Y-232722000D01*
X401324000Y-226822000D02*
X402324000Y-226822000D01*
X403824000Y-220922000D02*
X407924000Y-220922000D01*
X394624000Y-222722000D02*
X394324000Y-223022000D01*
X399824000Y-232722000D02*
X395724000Y-232722000D01*
X407924000Y-225522000D02*
X407924000Y-228122000D01*
X404824000Y-226822000D02*
G75*
G03*
X404824000Y-226822000I-3000000J0D01*
G01*
X178564000Y-207120000D02*
X208464000Y-207120000D01*
X181084000Y-188810000D02*
X183084000Y-188810000D01*
X178564000Y-207120000D02*
X178564000Y-189120000D01*
X208464000Y-207120000D02*
X208464000Y-189120000D01*
X178564000Y-189120000D02*
X208464000Y-189120000D01*
X370078000Y-189250000D02*
X366628000Y-189250000D01*
X370078000Y-199370000D02*
X372028000Y-199370000D01*
X370078000Y-189250000D02*
X372028000Y-189250000D01*
X370078000Y-199370000D02*
X368128000Y-199370000D01*
X70546000Y-235458000D02*
X70546000Y-225298000D01*
X81046000Y-235458000D02*
X70546000Y-235458000D01*
X81046000Y-225298000D02*
X70546000Y-225298000D01*
X81046000Y-235458000D02*
X81046000Y-225298000D01*
X328064000Y-207120000D02*
X328064000Y-189120000D01*
X357964000Y-207120000D02*
X357964000Y-189120000D01*
X328064000Y-207120000D02*
X357964000Y-207120000D01*
X328064000Y-189120000D02*
X357964000Y-189120000D01*
X330584000Y-188810000D02*
X332584000Y-188810000D01*
%LPC*%
D14*
X374747000Y-196938000D03*
X376397000Y-196938000D03*
D15*
X362618000Y-200836000D03*
X360968000Y-200836000D03*
X362618000Y-199312000D03*
X360968000Y-199312000D03*
X362618000Y-197788000D03*
X360968000Y-197788000D03*
X362618000Y-196264000D03*
X360968000Y-196264000D03*
X362618000Y-194740000D03*
X360968000Y-194740000D03*
X362618000Y-193216000D03*
X360968000Y-193216000D03*
X362618000Y-191692000D03*
X360968000Y-191692000D03*
X362618000Y-190168000D03*
X360968000Y-190168000D03*
X360968000Y-188644000D03*
X362618000Y-188644000D03*
X360968000Y-187032000D03*
X362618000Y-187032000D03*
D16*
X372553000Y-200533000D03*
X372553000Y-201803000D03*
X372553000Y-203073000D03*
X372553000Y-204343000D03*
X372553000Y-205613000D03*
X372553000Y-206883000D03*
X372553000Y-208153000D03*
X372553000Y-209423000D03*
X367603000Y-209423000D03*
X367603000Y-208153000D03*
X367603000Y-206883000D03*
X367603000Y-205613000D03*
X367603000Y-204343000D03*
X367603000Y-203073000D03*
X367603000Y-201803000D03*
X367603000Y-200533000D03*
D17*
X241884000Y-194310000D03*
D18*
X244424000Y-194310000D03*
X246964000Y-194310000D03*
X249504000Y-194310000D03*
X252044000Y-194310000D03*
X254584000Y-194310000D03*
X257124000Y-194310000D03*
X259664000Y-194310000D03*
X262204000Y-194310000D03*
X264744000Y-194310000D03*
X264744000Y-201930000D03*
X241884000Y-201930000D03*
D17*
X301684000Y-194310000D03*
D18*
X304224000Y-194310000D03*
X306764000Y-194310000D03*
X309304000Y-194310000D03*
X311844000Y-194310000D03*
X314384000Y-194310000D03*
X316924000Y-194310000D03*
X319464000Y-194310000D03*
X322004000Y-194310000D03*
X324544000Y-194310000D03*
X324544000Y-201930000D03*
X301684000Y-201930000D03*
X396240000Y-190905000D03*
X398780000Y-190905000D03*
X401320000Y-190905000D03*
X403860000Y-190905000D03*
X406400000Y-190905000D03*
X408940000Y-190905000D03*
X408940000Y-206145000D03*
X406400000Y-206145000D03*
X403860000Y-206145000D03*
X401320000Y-206145000D03*
X398780000Y-206145000D03*
D17*
X396240000Y-206145000D03*
X122284000Y-194310000D03*
D18*
X124824000Y-194310000D03*
X127364000Y-194310000D03*
X129904000Y-194310000D03*
X132444000Y-194310000D03*
X134984000Y-194310000D03*
X137524000Y-194310000D03*
X140064000Y-194310000D03*
X142604000Y-194310000D03*
X145144000Y-194310000D03*
X145144000Y-201930000D03*
X122284000Y-201930000D03*
D17*
X152184000Y-194310000D03*
D18*
X154724000Y-194310000D03*
X157264000Y-194310000D03*
X159804000Y-194310000D03*
X162344000Y-194310000D03*
X164884000Y-194310000D03*
X167424000Y-194310000D03*
X169964000Y-194310000D03*
X172504000Y-194310000D03*
X175044000Y-194310000D03*
X175044000Y-201930000D03*
X152184000Y-201930000D03*
D19*
X360732000Y-213794500D03*
X358192000Y-213794500D03*
X355652000Y-213794500D03*
X353112000Y-213794500D03*
X350572000Y-213794500D03*
X348032000Y-213794500D03*
X345492000Y-213794500D03*
X342952000Y-213794500D03*
X340412000Y-213794500D03*
X337872000Y-213794500D03*
X335332000Y-213794500D03*
X332792000Y-213794500D03*
X330252000Y-213794500D03*
X327712000Y-213794500D03*
X325172000Y-213794500D03*
X322632000Y-213794500D03*
X320092000Y-213794500D03*
X317552000Y-213794500D03*
X315012000Y-213794500D03*
X360732000Y-239194500D03*
X358192000Y-239194500D03*
X355652000Y-239194500D03*
X353112000Y-239194500D03*
X350572000Y-239194500D03*
X348032000Y-239194500D03*
X345492000Y-239194500D03*
X342952000Y-239194500D03*
X340412000Y-239194500D03*
X337872000Y-239194500D03*
X335332000Y-239194500D03*
X332792000Y-239194500D03*
X330252000Y-239194500D03*
X327712000Y-239194500D03*
X325172000Y-239194500D03*
X322632000Y-239194500D03*
X320092000Y-239194500D03*
X317552000Y-239194500D03*
D20*
X315012000Y-239194500D03*
D21*
X88199000Y-229158000D03*
D22*
X88199000Y-231698000D03*
X110429000Y-231698000D03*
D21*
X110429000Y-229158000D03*
D17*
X92384000Y-194310000D03*
D18*
X94924000Y-194310000D03*
X97464000Y-194310000D03*
X100004000Y-194310000D03*
X102544000Y-194310000D03*
X105084000Y-194310000D03*
X107624000Y-194310000D03*
X110164000Y-194310000D03*
X112704000Y-194310000D03*
X115244000Y-194310000D03*
X115244000Y-201930000D03*
X92384000Y-201930000D03*
D17*
X211984000Y-194310000D03*
D18*
X214524000Y-194310000D03*
X217064000Y-194310000D03*
X219604000Y-194310000D03*
X222144000Y-194310000D03*
X224684000Y-194310000D03*
X227224000Y-194310000D03*
X229764000Y-194310000D03*
X232304000Y-194310000D03*
X234844000Y-194310000D03*
X234844000Y-201930000D03*
X211984000Y-201930000D03*
D23*
X75946000Y-221742000D03*
D24*
X75946000Y-216662000D03*
D17*
X271784000Y-194310000D03*
D18*
X274324000Y-194310000D03*
X276864000Y-194310000D03*
X279404000Y-194310000D03*
X281944000Y-194310000D03*
X284484000Y-194310000D03*
X287024000Y-194310000D03*
X289564000Y-194310000D03*
X292104000Y-194310000D03*
X294644000Y-194310000D03*
X294644000Y-201930000D03*
X271784000Y-201930000D03*
D17*
X62484000Y-194310000D03*
D18*
X65024000Y-194310000D03*
X67564000Y-194310000D03*
X70104000Y-194310000D03*
X72644000Y-194310000D03*
X75184000Y-194310000D03*
X77724000Y-194310000D03*
X80264000Y-194310000D03*
X82804000Y-194310000D03*
X85344000Y-194310000D03*
X85344000Y-201930000D03*
X62484000Y-201930000D03*
D21*
X88199000Y-217449000D03*
D22*
X88199000Y-219989000D03*
X110429000Y-219989000D03*
D21*
X110429000Y-217449000D03*
D25*
X394324000Y-224322000D03*
D26*
X394324000Y-229322000D03*
X394324000Y-226822000D03*
D27*
X401824000Y-232422000D03*
X401824000Y-221222000D03*
D26*
X408824000Y-229322000D03*
X408824000Y-224322000D03*
D17*
X182084000Y-194310000D03*
D18*
X184624000Y-194310000D03*
X187164000Y-194310000D03*
X189704000Y-194310000D03*
X192244000Y-194310000D03*
X194784000Y-194310000D03*
X197324000Y-194310000D03*
X199864000Y-194310000D03*
X202404000Y-194310000D03*
X204944000Y-194310000D03*
X204944000Y-201930000D03*
X182084000Y-201930000D03*
D16*
X372553000Y-189865000D03*
X372553000Y-191135000D03*
X372553000Y-192405000D03*
X372553000Y-193675000D03*
X372553000Y-194945000D03*
X372553000Y-196215000D03*
X372553000Y-197485000D03*
X372553000Y-198755000D03*
X367603000Y-198755000D03*
X367603000Y-197485000D03*
X367603000Y-196215000D03*
X367603000Y-194945000D03*
X367603000Y-193675000D03*
X367603000Y-192405000D03*
X367603000Y-191135000D03*
X367603000Y-189865000D03*
D23*
X75846000Y-232918000D03*
D24*
X75846000Y-227838000D03*
D17*
X331584000Y-194310000D03*
D18*
X334124000Y-194310000D03*
X336664000Y-194310000D03*
X339204000Y-194310000D03*
X341744000Y-194310000D03*
X344284000Y-194310000D03*
X346824000Y-194310000D03*
X349364000Y-194310000D03*
X351904000Y-194310000D03*
X354444000Y-194310000D03*
X354444000Y-201930000D03*
X331584000Y-201930000D03*
M02*
