M48
; DRILL file {KiCad (6.0.6)} date Sun Aug 14 15:31:57 2022
; FORMAT={-:-/ absolute / inch / decimal}
; #@! TF.CreationDate,2022-08-14T15:31:57+08:00
; #@! TF.GenerationSoftware,Kicad,Pcbnew,(6.0.6)
; #@! TF.FileFunction,Plated,1,2,PTH
FMAT,2
INCH
; #@! TA.AperFunction,Plated,PTH,ViaDrill
T1C0.0157
; #@! TA.AperFunction,Plated,PTH,ComponentDrill
T2C0.0394
; #@! TA.AperFunction,Plated,PTH,ComponentDrill
T3C0.0409
; #@! TA.AperFunction,Plated,PTH,ComponentDrill
T4C0.0551
; #@! TA.AperFunction,Plated,PTH,ComponentDrill
T5C0.0591
%
G90
G05
T1
X2.7963Y-7.8135
X2.8538Y-7.8135
X2.9113Y-7.8135
X2.9688Y-7.8135
X3.0263Y-7.8135
X3.9863Y-8.0785
X4.0438Y-8.0785
X4.1013Y-8.0785
X4.1588Y-8.0785
X4.2163Y-8.0785
X5.1813Y-8.0785
X5.2388Y-8.0785
X5.2963Y-8.0785
X5.3538Y-8.0785
X5.4113Y-8.0785
X6.4113Y-8.0785
X6.4688Y-8.0785
X6.5263Y-8.0785
X6.5838Y-8.0785
X6.6413Y-8.0785
X7.5263Y-8.0785
X7.5838Y-8.0785
X7.6413Y-8.0785
X7.6988Y-8.0785
X7.7563Y-8.0785
X8.7363Y-8.0535
X8.7938Y-8.0535
X8.8513Y-8.0535
X8.9088Y-8.0535
X8.9663Y-8.0535
X9.8563Y-8.0335
X9.9138Y-8.0335
X9.9713Y-8.0335
X10.0288Y-8.0335
X10.0863Y-8.0335
X10.5563Y-8.3885
X10.5563Y-8.7985
X10.5563Y-9.2185
X10.6138Y-8.3885
X10.6138Y-8.7985
X10.6138Y-9.2185
X10.6713Y-8.3885
X10.6713Y-8.7985
X10.6713Y-9.2185
X10.7288Y-8.3885
X10.7288Y-8.7985
X10.7288Y-9.2185
X10.7863Y-8.3885
X10.7863Y-8.7985
X10.7863Y-9.2185
X11.0563Y-8.0035
X11.1138Y-8.0035
X11.1713Y-8.0035
X11.2288Y-8.0035
X11.2863Y-8.0035
X12.2113Y-7.9885
X12.2688Y-7.9885
X12.3263Y-7.9885
X12.3838Y-7.9885
X12.4413Y-7.9885
X12.5563Y-9.2185
X12.6138Y-9.2185
X12.6713Y-9.2185
X12.7288Y-9.2185
X12.7863Y-9.2185
X12.8413Y-8.6385
X12.8988Y-8.6385
X12.9563Y-8.6385
X13.0138Y-8.6385
X13.0713Y-8.6385
X13.34Y-9.28
X14.3713Y-9.3835
X14.4288Y-9.3835
X14.48Y-8.66
X14.4863Y-9.3835
X14.54Y-7.475
X14.54Y-7.775
X14.54Y-7.825
X14.54Y-7.895
X14.5438Y-9.3835
X14.5713Y-7.6285
X14.5713Y-7.6835
X14.58Y-7.775
X14.58Y-7.945
X14.59Y-8.04
X14.6Y-7.525
X14.6Y-8.31
X14.6013Y-9.3835
X14.61Y-8.77
X14.6513Y-9.1235
X14.7013Y-7.3735
X14.7088Y-9.1235
X14.7313Y-8.9335
X14.74Y-8.29
X14.75Y-7.575
X14.75Y-7.94
X14.7588Y-7.3735
X14.7663Y-9.1235
X14.7888Y-8.9335
X14.79Y-7.81
X14.79Y-8.01
X14.81Y-7.56
X14.81Y-7.62
X14.8163Y-7.3735
X14.82Y-8.045
X14.8238Y-9.1235
X14.8463Y-8.9335
X14.87Y-7.94
X14.8738Y-7.3735
X14.8813Y-9.1235
X14.9038Y-8.9335
X14.91Y-8.095
X14.9313Y-7.3735
X14.95Y-7.68
X14.95Y-8.04
X14.95Y-8.145
X14.9613Y-8.9335
X14.99Y-7.9635
X15.005Y-7.575
X15.04Y-8.77
X15.1363Y-7.775
X15.1363Y-8.1935
X15.15Y-7.59
X15.15Y-7.66
X15.15Y-7.71
X15.1763Y-7.825
X15.1763Y-7.9935
X15.2813Y-8.4835
X15.3388Y-8.4835
X15.3663Y-7.7485
X15.3963Y-8.4835
X15.4238Y-7.7485
X15.4538Y-8.4835
X15.4813Y-7.7485
X15.5113Y-8.4835
X15.5263Y-8.1335
X15.6463Y-8.7635
X15.6463Y-8.821
X15.6463Y-8.8785
X15.6463Y-8.936
X15.6463Y-8.9935
X15.6513Y-7.3735
X15.6613Y-7.6535
X15.6663Y-7.8085
X15.7088Y-7.3735
X15.7238Y-7.8085
X15.7463Y-8.1935
X15.7663Y-7.3735
X15.7813Y-7.8085
X15.8238Y-7.3735
X15.8388Y-7.8085
X15.8813Y-7.3735
X15.8963Y-7.8085
X16.3913Y-7.3735
X16.3913Y-7.6185
X16.3913Y-7.676
X16.3913Y-7.7335
X16.3913Y-7.791
X16.3913Y-7.8485
X16.4488Y-7.3735
X16.5063Y-7.3735
X16.5638Y-7.3735
X16.6213Y-7.3735
T2
X2.46Y-7.65
X2.46Y-7.95
X2.56Y-7.65
X2.66Y-7.65
X2.76Y-7.65
X2.86Y-7.65
X2.96Y-7.65
X3.06Y-7.65
X3.16Y-7.65
X3.26Y-7.65
X3.36Y-7.65
X3.36Y-7.95
X3.4724Y-8.561
X3.4724Y-8.661
X3.4724Y-9.022
X3.4724Y-9.122
X3.6372Y-7.65
X3.6372Y-7.95
X3.7372Y-7.65
X3.8372Y-7.65
X3.9372Y-7.65
X4.0372Y-7.65
X4.1372Y-7.65
X4.2372Y-7.65
X4.3372Y-7.65
X4.3476Y-8.561
X4.3476Y-8.661
X4.3476Y-9.022
X4.3476Y-9.122
X4.4372Y-7.65
X4.5372Y-7.65
X4.5372Y-7.95
X4.8143Y-7.65
X4.8143Y-7.95
X4.9143Y-7.65
X5.0143Y-7.65
X5.1143Y-7.65
X5.2143Y-7.65
X5.3143Y-7.65
X5.4143Y-7.65
X5.5143Y-7.65
X5.6143Y-7.65
X5.7143Y-7.65
X5.7143Y-7.95
X5.9915Y-7.65
X5.9915Y-7.95
X6.0915Y-7.65
X6.1915Y-7.65
X6.2915Y-7.65
X6.3915Y-7.65
X6.4915Y-7.65
X6.5915Y-7.65
X6.6915Y-7.65
X6.7915Y-7.65
X6.8915Y-7.65
X6.8915Y-7.95
X7.1687Y-7.65
X7.1687Y-7.95
X7.2687Y-7.65
X7.3687Y-7.65
X7.4687Y-7.65
X7.5687Y-7.65
X7.6687Y-7.65
X7.7687Y-7.65
X7.8687Y-7.65
X7.9687Y-7.65
X8.0687Y-7.65
X8.0687Y-7.95
X8.3458Y-7.65
X8.3458Y-7.95
X8.4458Y-7.65
X8.5458Y-7.65
X8.6458Y-7.65
X8.7458Y-7.65
X8.8458Y-7.65
X8.9458Y-7.65
X9.0458Y-7.65
X9.1458Y-7.65
X9.2458Y-7.65
X9.2458Y-7.95
X9.523Y-7.65
X9.523Y-7.95
X9.623Y-7.65
X9.723Y-7.65
X9.823Y-7.65
X9.923Y-7.65
X10.023Y-7.65
X10.123Y-7.65
X10.223Y-7.65
X10.323Y-7.65
X10.423Y-7.65
X10.423Y-7.95
X10.7002Y-7.65
X10.7002Y-7.95
X10.8002Y-7.65
X10.9002Y-7.65
X11.0002Y-7.65
X11.1002Y-7.65
X11.2002Y-7.65
X11.3002Y-7.65
X11.4002Y-7.65
X11.5002Y-7.65
X11.6002Y-7.65
X11.6002Y-7.95
X11.8773Y-7.65
X11.8773Y-7.95
X11.9773Y-7.65
X12.0773Y-7.65
X12.1773Y-7.65
X12.2773Y-7.65
X12.3773Y-7.65
X12.4773Y-7.65
X12.5773Y-7.65
X12.6773Y-7.65
X12.7773Y-7.65
X12.7773Y-7.95
X13.0545Y-7.65
X13.0545Y-7.95
X13.1545Y-7.65
X13.2545Y-7.65
X13.3545Y-7.65
X13.4545Y-7.65
X13.5545Y-7.65
X13.6545Y-7.65
X13.7545Y-7.65
X13.8545Y-7.65
X13.9545Y-7.65
X13.9545Y-7.95
X15.5246Y-8.8316
X15.5246Y-8.93
X15.5246Y-9.0284
X15.6Y-7.5159
X15.6Y-8.1159
X15.7Y-7.5159
X15.7Y-8.1159
X15.8Y-7.5159
X15.8Y-8.1159
X15.9Y-7.5159
X15.9Y-8.1159
X16.0Y-7.5159
X16.0Y-8.1159
X16.0954Y-8.8316
X16.0954Y-9.0284
X16.1Y-7.5159
X16.1Y-8.1159
T3
X12.402Y-8.4171
X12.402Y-9.4171
X12.502Y-8.4171
X12.502Y-9.4171
X12.602Y-8.4171
X12.602Y-9.4171
X12.702Y-8.4171
X12.702Y-9.4171
X12.802Y-8.4171
X12.802Y-9.4171
X12.902Y-8.4171
X12.902Y-9.4171
X13.002Y-8.4171
X13.002Y-9.4171
X13.102Y-8.4171
X13.102Y-9.4171
X13.202Y-8.4171
X13.202Y-9.4171
X13.302Y-8.4171
X13.302Y-9.4171
X13.402Y-8.4171
X13.402Y-9.4171
X13.502Y-8.4171
X13.502Y-9.4171
X13.602Y-8.4171
X13.602Y-9.4171
X13.702Y-8.4171
X13.702Y-9.4171
X13.802Y-8.4171
X13.802Y-9.4171
X13.902Y-8.4171
X13.902Y-9.4171
X14.002Y-8.4171
X14.002Y-9.4171
X14.102Y-8.4171
X14.102Y-9.4171
X14.202Y-8.4171
X14.202Y-9.4171
T4
X2.9861Y-8.97
X2.9861Y-9.17
X2.99Y-8.53
X2.99Y-8.73
T5
G00X15.7943Y-8.7095
M15
G01X15.8454Y-8.7095
M16
G05
G00X15.7943Y-9.1505
M15
G01X15.8454Y-9.1505
M16
G05
T0
M30
